<svg width="25" height="25" viewBox="0 0 25 25" fill="none" xmlns="http://www.w3.org/2000/svg">
<g clip-path="url(#clip0_1005_999)">
<path d="M11.719 0C12.2405 0 12.7619 0 13.281 0C13.7071 0.0547619 14.1357 0.097619 14.5571 0.169048C16.9048 0.571429 18.9833 1.55238 20.7619 3.13571C22.9357 5.07143 24.2976 7.47381 24.8071 10.3476C24.8881 10.8024 24.9357 11.2619 25 11.719V13.281C24.9857 13.3429 24.9643 13.4048 24.9595 13.469C24.8119 15.4143 24.25 17.2357 23.2286 18.8952C21.2429 22.1214 18.3857 24.1071 14.6524 24.8071C14.2 24.8929 13.7381 24.9357 13.281 24.9976H11.719C11.4143 24.9595 11.1095 24.9262 10.8048 24.8833C8.31667 24.5262 6.11905 23.531 4.24048 21.8619C2.06905 19.9357 0.714286 17.5381 0.195238 14.6786C0.111905 14.2167 0.0642857 13.7476 0 13.281C0 12.7595 0 12.2405 0 11.719C0.0547619 11.3024 0.0952381 10.881 0.166667 10.4667C0.609524 7.86667 1.75 5.61667 3.60238 3.74048C5.47143 1.84286 7.72143 0.654762 10.3476 0.192857C10.8024 0.111905 11.2619 0.0642857 11.719 0ZM13.9357 12.4786C14.0452 12.3952 14.1238 12.3476 14.1881 12.2857C15.1167 11.3619 16.0429 10.4357 16.9667 9.50714C17.0524 9.42143 17.1405 9.33333 17.2119 9.23571C17.6238 8.66667 17.3595 7.85714 16.6905 7.64524C16.2619 7.50952 15.8929 7.63095 15.5786 7.94524C14.619 8.90714 13.6571 9.86667 12.6976 10.8286C12.6357 10.8905 12.5714 10.9476 12.4595 11.05C12.3952 10.9619 12.3524 10.8786 12.2905 10.8167C11.331 9.85476 10.3738 8.89286 9.40952 7.93571C8.94048 7.47143 8.26429 7.48095 7.85238 7.94524C7.47619 8.37143 7.50952 8.97857 7.94524 9.41429C8.90476 10.3762 9.86667 11.3357 10.8262 12.2976C10.8881 12.3595 10.9452 12.4238 11.0167 12.5C10.9452 12.5762 10.8857 12.6405 10.8238 12.7024C9.88571 13.6405 8.94762 14.5786 8.0119 15.5167C7.94762 15.581 7.88333 15.6405 7.82857 15.7119C7.57143 16.0429 7.51905 16.4119 7.6881 16.7905C7.85714 17.1714 8.16667 17.3786 8.58571 17.4024C8.93333 17.4238 9.20952 17.2714 9.45238 17.0286C10.4048 16.0714 11.3619 15.1167 12.3167 14.1619C12.3762 14.1024 12.4429 14.0452 12.5357 13.9595C12.6214 14.0619 12.6833 14.15 12.7571 14.2238C13.7 15.169 14.6429 16.1119 15.5857 17.0548C15.9 17.3714 16.2714 17.4881 16.7 17.35C17.4476 17.1071 17.6548 16.1905 17.0857 15.6095C16.3357 14.8429 15.569 14.0881 14.8095 13.3286C14.5405 13.0595 14.2643 12.7952 13.9405 12.4786H13.9357Z" fill="#E30613"/>
<path d="M13.9357 12.4785C14.2595 12.7952 14.5357 13.0595 14.8047 13.3285C15.5643 14.0857 16.3309 14.8404 17.0809 15.6095C17.65 16.1904 17.4428 17.1071 16.6952 17.35C16.2666 17.4881 15.8976 17.3714 15.5809 17.0547C14.6381 16.1095 13.6952 15.1666 12.7524 14.2238C12.6786 14.15 12.6166 14.0619 12.5309 13.9595C12.4381 14.0452 12.3738 14.1023 12.3119 14.1619C11.3571 15.1166 10.4 16.069 9.4476 17.0285C9.20712 17.2714 8.93093 17.4238 8.58093 17.4023C8.16188 17.3785 7.85236 17.169 7.68331 16.7904C7.51426 16.4119 7.56665 16.0428 7.82379 15.7119C7.87855 15.6428 7.94522 15.5809 8.00712 15.5166C8.94522 14.5785 9.88331 13.6404 10.819 12.7023C10.8809 12.6404 10.9405 12.5761 11.0119 12.5C10.9428 12.4261 10.8833 12.3595 10.8214 12.2976C9.86188 11.3357 8.8976 10.3785 7.94045 9.41425C7.50474 8.97853 7.47141 8.37139 7.8476 7.9452C8.2595 7.47853 8.93569 7.46901 9.40474 7.93567C10.369 8.89282 11.3286 9.85472 12.2857 10.8166C12.3476 10.8785 12.3905 10.9619 12.4547 11.05C12.5643 10.9476 12.6309 10.8904 12.6928 10.8285C13.6547 9.86901 14.6143 8.90948 15.5738 7.9452C15.8881 7.62853 16.2571 7.50948 16.6857 7.6452C17.3547 7.8571 17.619 8.66663 17.2071 9.23567C17.1357 9.33329 17.0476 9.42139 16.9619 9.5071C16.0357 10.4333 15.1095 11.3595 14.1833 12.2857C14.1214 12.3476 14.0428 12.3952 13.9309 12.4785H13.9357Z" fill="white"/>
</g>
<defs>
<clipPath id="clip0_1005_999">
<rect width="25" height="25" fill="white"/>
</clipPath>
</defs>
</svg>
