<svg width="150" height="150" viewBox="0 0 150 150" fill="none" xmlns="http://www.w3.org/2000/svg">
<g clip-path="url(#clip0_954_254)">
<path d="M130 0H20C8.9543 0 0 8.9543 0 20V130C0 141.046 8.9543 150 20 150H130C141.046 150 150 141.046 150 130V20C150 8.9543 141.046 0 130 0Z" fill="url(#paint0_linear_954_254)"/>
<path d="M124.83 109.5C128.006 109.5 130.58 106.926 130.58 103.75C130.58 100.574 128.006 98 124.83 98C121.654 98 119.08 100.574 119.08 103.75C119.08 106.926 121.654 109.5 124.83 109.5Z" fill="#FFD648"/>
<path d="M103.75 130.58C106.926 130.58 109.5 128.006 109.5 124.83C109.5 121.654 106.926 119.08 103.75 119.08C100.574 119.08 98 121.654 98 124.83C98 128.006 100.574 130.58 103.75 130.58Z" fill="#FFD648"/>
<path d="M75 126.75C78.1756 126.75 80.75 124.176 80.75 121C80.75 117.824 78.1756 115.25 75 115.25C71.8244 115.25 69.25 117.824 69.25 121C69.25 124.176 71.8244 126.75 75 126.75Z" fill="#FFD648"/>
<path d="M46.25 130.58C49.4256 130.58 52 128.006 52 124.83C52 121.654 49.4256 119.08 46.25 119.08C43.0744 119.08 40.5 121.654 40.5 124.83C40.5 128.006 43.0744 130.58 46.25 130.58Z" fill="#FFD648"/>
<path d="M25.17 109.5C28.3456 109.5 30.92 106.926 30.92 103.75C30.92 100.574 28.3456 98 25.17 98C21.9944 98 19.42 100.574 19.42 103.75C19.42 106.926 21.9944 109.5 25.17 109.5Z" fill="#FFD648"/>
<path d="M99.92 80.75V88.42C99.92 90.54 98.2 92.25 96.09 92.25H53.92C51.8 92.25 50.09 90.53 50.09 88.42V80.75C50.09 78.63 51.81 76.92 53.92 76.92H96.09C98.21 76.92 99.92 78.64 99.92 80.75Z" fill="#FFD648"/>
<path d="M96.08 61.59H53.91C51.7948 61.59 50.08 63.3047 50.08 65.42V73.09C50.08 75.2052 51.7948 76.92 53.91 76.92H96.08C98.1953 76.92 99.91 75.2052 99.91 73.09V65.42C99.91 63.3047 98.1953 61.59 96.08 61.59Z" fill="#FFD648"/>
<path d="M96.08 46.26H53.91C51.7948 46.26 50.08 47.9747 50.08 50.09V57.76C50.08 59.8752 51.7948 61.59 53.91 61.59H96.08C98.1953 61.59 99.91 59.8752 99.91 57.76V50.09C99.91 47.9747 98.1953 46.26 96.08 46.26Z" fill="#FFD648"/>
<path d="M67.33 92.25H53.91C51.79 92.25 50.08 90.53 50.08 88.42V80.75C50.08 78.63 51.8 76.92 53.91 76.92H67.33C65.21 76.92 63.5 78.64 63.5 80.75V88.42C63.5 90.54 65.22 92.25 67.33 92.25ZM67.33 76.92H53.91C51.79 76.92 50.08 75.2 50.08 73.09V65.42C50.08 63.3 51.8 61.59 53.91 61.59H67.33C65.21 61.59 63.5 63.31 63.5 65.42V73.09C63.5 75.21 65.22 76.92 67.33 76.92ZM67.33 61.59H53.91C51.79 61.59 50.08 59.87 50.08 57.76V50.09C50.08 47.97 51.8 46.26 53.91 46.26H67.33C65.21 46.26 63.5 47.98 63.5 50.09V57.76C63.5 59.88 65.22 61.59 67.33 61.59Z" fill="#FFB300"/>
<path d="M113.33 46.26C122.86 46.26 130.58 53.98 130.58 63.51C130.58 73.04 122.86 80.76 113.33 80.76H99.91C99.91 78.64 98.19 76.93 96.08 76.93C98.2 76.93 99.91 75.21 99.91 73.1V65.43C99.91 63.31 98.19 61.6 96.08 61.6C98.2 61.6 99.91 59.88 99.91 57.77V50.1C99.91 47.98 98.19 46.27 96.08 46.27H53.91C51.79 46.27 50.08 47.99 50.08 50.1V57.77C50.08 59.89 51.8 61.6 53.91 61.6C51.79 61.6 50.08 63.32 50.08 65.43V73.1C50.08 75.22 51.8 76.93 53.91 76.93C51.79 76.93 50.08 78.65 50.08 80.76H40.5C28.86 80.75 19.43 71.3 19.44 59.66C19.45 48.02 28.9 38.59 40.55 38.6C41.69 38.6 42.83 38.69 43.95 38.88C52.27 21.73 72.91 14.58 90.06 22.9C99.68 27.56 106.59 36.42 108.78 46.88C110.26 46.47 111.8 46.27 113.34 46.27L113.33 46.26Z" fill="#00D0CE"/>
<path d="M75 19.43C77.58 19.43 80.15 19.71 82.67 20.29C72.46 22.62 63.86 29.46 59.28 38.88C47.79 36.98 36.93 44.75 35.03 56.24C33.27 66.86 39.79 77.09 50.15 79.99C50.1 80.24 50.07 80.5 50.07 80.76H40.49C28.85 80.75 19.42 71.3 19.43 59.66C19.44 48.02 28.89 38.59 40.54 38.6C41.68 38.6 42.82 38.69 43.94 38.88C49.71 26.98 61.77 19.43 74.99 19.44L75 19.43ZM105.67 61.59C107.79 61.59 109.5 63.31 109.5 65.42V73.09C109.5 75.21 107.78 76.92 105.67 76.92C107.75 76.92 109.45 78.57 109.5 80.65C108.86 80.72 108.23 80.76 107.59 80.76H99.92C99.92 78.64 98.2 76.93 96.09 76.93C98.21 76.93 99.92 75.21 99.92 73.1V65.43C99.92 63.31 98.2 61.6 96.09 61.6C98.21 61.6 99.92 59.88 99.92 57.77V50.1C99.92 47.98 98.2 46.27 96.09 46.27C96.09 46.27 105.17 46.4 106.29 46.32C108.15 46.62 109.51 48.23 109.51 50.1V57.77C109.51 59.89 107.79 61.6 105.68 61.6L105.67 61.59Z" fill="#00A5AB"/>
<path d="M55.83 52.01H78.83V55.84H55.83V52.01ZM82.67 52.01H86.5V55.84H82.67V52.01ZM90.33 52.01H94.16V55.84H90.33V52.01ZM55.83 67.34H78.83V71.17H55.83V67.34ZM82.67 67.34H86.5V71.17H82.67V67.34ZM90.33 67.34H94.16V71.17H90.33V67.34ZM55.83 82.67H78.83V86.5H55.83V82.67ZM82.67 82.67H86.5V86.5H82.67V82.67ZM90.33 82.67H94.16V86.5H90.33V82.67Z" fill="#00074E"/>
<path d="M124.83 96.09C121.34 96.09 118.28 98.46 117.41 101.84H96.08V94.17C99.25 94.17 101.83 91.59 101.83 88.42V82.67H113.33C123.92 82.67 132.49 74.08 132.48 63.49C132.48 52.91 123.89 44.33 113.3 44.34C112.26 44.34 111.23 44.43 110.2 44.59C105.05 25.15 85.1 13.56 65.66 18.72C55.88 21.31 47.61 27.86 42.85 36.79C42.07 36.71 41.28 36.67 40.49 36.67C27.79 36.67 17.49 46.97 17.49 59.67C17.49 72.37 27.79 82.67 40.49 82.67H48.16V88.42C48.16 91.59 50.74 94.17 53.91 94.17V101.84H32.58C31.52 97.74 27.34 95.28 23.24 96.33C19.14 97.39 16.68 101.57 17.73 105.67C18.78 109.77 22.97 112.23 27.07 111.18C29.77 110.48 31.88 108.37 32.58 105.67H55.82C56.88 105.67 57.74 104.81 57.74 103.75V94.17H61.57V109.5H46.24C45.18 109.5 44.32 110.36 44.32 111.42V117.41C40.22 118.47 37.76 122.65 38.81 126.75C39.87 130.85 44.05 133.31 48.15 132.26C52.25 131.2 54.71 127.02 53.66 122.92C52.96 120.22 50.85 118.11 48.15 117.41V113.33H63.48C64.54 113.33 65.4 112.47 65.4 111.41V94.16H73.07V113.57C68.97 114.63 66.51 118.81 67.56 122.91C68.62 127.01 72.8 129.47 76.9 128.42C81 127.36 83.46 123.18 82.41 119.08C81.71 116.38 79.6 114.27 76.9 113.57V94.16H84.57V111.41C84.57 112.47 85.43 113.33 86.49 113.33H101.82V117.41C97.72 118.47 95.26 122.65 96.31 126.75C97.37 130.85 101.55 133.31 105.65 132.26C109.75 131.2 112.21 127.02 111.16 122.92C110.46 120.22 108.35 118.11 105.65 117.41V111.42C105.65 110.36 104.79 109.5 103.73 109.5H88.4V94.17H92.23V103.75C92.23 104.81 93.09 105.67 94.15 105.67H117.39C118.45 109.77 122.63 112.23 126.73 111.18C130.83 110.12 133.29 105.94 132.24 101.84C131.37 98.46 128.31 96.09 124.82 96.09H124.83ZM25.17 107.59C23.05 107.59 21.34 105.87 21.34 103.76C21.34 101.65 23.06 99.93 25.17 99.93C27.28 99.93 29 101.65 29 103.76C29 105.88 27.28 107.59 25.17 107.59ZM50.08 124.83C50.08 126.95 48.36 128.66 46.25 128.66C44.14 128.66 42.42 126.94 42.42 124.83C42.42 122.72 44.14 121 46.25 121C48.37 121 50.08 122.72 50.08 124.83ZM78.83 121C78.83 123.12 77.11 124.83 75 124.83C72.89 124.83 71.17 123.11 71.17 121C71.17 118.89 72.89 117.17 75 117.17C77.12 117.17 78.83 118.89 78.83 121ZM107.58 124.83C107.58 126.95 105.86 128.66 103.75 128.66C101.64 128.66 99.92 126.94 99.92 124.83C99.92 122.72 101.64 121 103.75 121C105.87 121 107.58 122.72 107.58 124.83ZM52 57.76V50.09C52 49.03 52.86 48.17 53.92 48.17H96.09C97.15 48.17 98.01 49.03 98.01 50.09V57.76C98.01 58.82 97.15 59.68 96.09 59.68H53.92C52.86 59.68 52 58.82 52 57.76ZM52 73.09V65.42C52 64.36 52.86 63.5 53.92 63.5H96.09C97.15 63.5 98.01 64.36 98.01 65.42V73.09C98.01 74.15 97.15 75.01 96.09 75.01H53.92C52.86 75.01 52 74.15 52 73.09ZM21.33 59.67C21.34 49.09 29.92 40.52 40.5 40.51C41.55 40.51 42.6 40.59 43.64 40.76C44.48 40.9 45.31 40.47 45.68 39.71C53.54 23.52 73.03 16.76 89.23 24.61C98.31 29.01 104.84 37.38 106.91 47.26C107.13 48.3 108.14 48.96 109.18 48.75C109.22 48.75 109.26 48.73 109.3 48.72C117.47 46.49 125.9 51.3 128.13 59.47C130.36 67.64 125.55 76.07 117.38 78.3C116.07 78.66 114.71 78.84 113.35 78.84H101.52C101.27 78.13 100.88 77.48 100.38 76.92C101.33 75.87 101.85 74.5 101.85 73.09V65.42C101.85 64 101.33 62.64 100.38 61.59C101.33 60.54 101.85 59.17 101.85 57.76V50.09C101.85 46.92 99.27 44.34 96.1 44.34H53.93C50.76 44.34 48.18 46.92 48.18 50.09V57.76C48.18 59.18 48.7 60.54 49.65 61.59C48.7 62.64 48.18 64.01 48.18 65.42V73.09C48.18 74.51 48.7 75.87 49.65 76.92C49.15 77.48 48.76 78.13 48.51 78.84H40.51C29.93 78.83 21.36 70.25 21.34 59.68L21.33 59.67ZM52 88.42V80.75C52 79.69 52.86 78.83 53.92 78.83H96.09C97.15 78.83 98.01 79.69 98.01 80.75V88.42C98.01 89.48 97.15 90.34 96.09 90.34H53.92C52.86 90.34 52 89.48 52 88.42ZM124.83 107.59C122.71 107.59 121 105.87 121 103.76C121 101.65 122.72 99.93 124.83 99.93C126.94 99.93 128.66 101.65 128.66 103.76C128.66 105.88 126.94 107.59 124.83 107.59Z" fill="#00074E"/>
</g>
<defs>
<linearGradient id="paint0_linear_954_254" x1="75" y1="0" x2="75" y2="150" gradientUnits="userSpaceOnUse">
<stop stop-color="#00D2FF"/>
<stop offset="0.5" stop-color="#FB19F8"/>
<stop offset="1" stop-color="#FB19F8"/>
</linearGradient>
<clipPath id="clip0_954_254">
<rect width="150" height="150" fill="white"/>
</clipPath>
</defs>
</svg>
