<svg width="32" height="33" viewBox="0 0 32 33" fill="none" xmlns="http://www.w3.org/2000/svg">
<path d="M23.3201 28.6269C23.2068 28.5569 23.1101 28.5002 23.0168 28.4369C22.0901 27.8169 21.1668 27.1902 20.2368 26.5769C19.4834 26.0802 18.5968 26.2369 18.1334 26.9369C17.6701 27.6369 17.8734 28.5169 18.6201 29.0169C19.9834 29.9269 21.3468 30.8336 22.7101 31.7436C23.6734 32.3836 24.4468 32.2269 25.0868 31.2669C26.5134 29.1269 27.9401 26.9869 29.3668 24.8469C29.8468 24.1269 30.3401 23.4169 30.8001 22.6836C31.3268 21.8402 30.9234 20.7802 30.0001 20.5002C29.3468 20.3036 28.7234 20.5502 28.2968 21.1869C26.7101 23.5602 25.1234 25.9369 23.5368 28.3136C23.4701 28.4136 23.3968 28.5136 23.3168 28.6269H23.3201Z" fill="white"/>
<path d="M20.2667 16.7102C20.6667 16.8802 21.0367 17.0202 21.3901 17.1902C21.8801 17.4269 22.3734 17.6702 22.8401 17.9469C23.5934 18.3969 23.8134 19.2702 23.3834 19.9836C22.9534 20.6902 22.0767 20.8969 21.3234 20.4402C19.1534 19.1302 16.8101 18.5602 14.2767 18.6802C9.55672 18.9002 5.18672 22.1636 3.62005 26.6669C3.17339 27.9469 2.94005 29.2602 2.92005 30.6169C2.90672 31.5469 2.30005 32.1702 1.45672 32.1702C0.620053 32.1702 -0.00661397 31.5236 5.26934e-05 30.6502C0.0267194 27.9369 0.720053 25.4069 2.12005 23.0802C3.80672 20.2836 6.16005 18.2369 9.16005 16.9402C9.24339 16.9036 9.32339 16.8636 9.41005 16.8202C4.68339 13.5236 4.31672 6.8169 8.05672 2.9069C11.5834 -0.779765 17.3067 -0.996432 21.0334 2.4669C23.1367 4.42357 24.1501 6.8669 24.0034 9.7469C23.8567 12.6269 22.5301 14.9069 20.2634 16.7069L20.2667 16.7102ZM8.44339 9.28024C8.45672 12.8036 11.2901 15.6236 14.8034 15.6036C18.3201 15.5836 21.1401 12.7369 21.1201 9.23024C21.1001 5.7369 18.2634 2.92023 14.7701 2.92357C11.2534 2.93023 8.43005 5.76357 8.44339 9.28024Z" fill="white"/>
<path d="M23.3199 28.6269C23.3999 28.5136 23.4733 28.4136 23.5399 28.3136C25.1266 25.9369 26.7099 23.5602 28.2999 21.1869C28.7266 20.5502 29.3499 20.3036 30.0033 20.5002C30.9266 20.7802 31.3299 21.8402 30.8033 22.6836C30.3466 23.4169 29.8499 24.1269 29.3699 24.8469C27.9433 26.9869 26.5166 29.1269 25.0899 31.2669C24.4466 32.2302 23.6733 32.3869 22.7133 31.7436C21.3499 30.8369 19.9866 29.9269 18.6233 29.0169C17.8766 28.5202 17.6699 27.6369 18.1366 26.9369C18.5999 26.2369 19.4866 26.0802 20.2399 26.5769C21.1699 27.1902 22.0933 27.8169 23.0199 28.4369C23.1133 28.5002 23.2099 28.5536 23.3233 28.6269H23.3199Z" fill="white"/>
</svg>
