<svg width="25" height="25" viewBox="0 0 25 25" fill="none" xmlns="http://www.w3.org/2000/svg">
<path d="M11.7667 0C12.2548 0 12.7429 0 13.231 0C13.2929 0.0142857 13.3548 0.0357143 13.419 0.0404762C15.3738 0.178571 17.2048 0.738095 18.8738 1.75952C22.1119 3.74524 24.1048 6.60476 24.8048 10.3476C24.8929 10.8167 24.9357 11.2929 25 11.7667V13.231C24.981 13.4071 24.9595 13.5833 24.9405 13.7571C24.6405 16.4476 23.6143 18.819 21.8 20.8309C19.8762 22.9667 17.4905 24.3 14.6524 24.8024C14.181 24.8857 13.7048 24.9333 13.231 24.9976H11.7667C11.7048 24.9833 11.6429 24.9619 11.5786 24.9571C9.62381 24.819 7.79286 24.2595 6.12381 23.2381C2.8881 21.2548 0.895238 18.3929 0.195238 14.65C0.107143 14.181 0.0642857 13.7048 0 13.2333C0 12.7452 0 12.2571 0 11.769C0.0190476 11.5929 0.0404762 11.4167 0.0595238 11.2429C0.359524 8.55238 1.38571 6.18095 3.2 4.16905C5.12381 2.03095 7.50952 0.697619 10.3476 0.195238C10.8167 0.111905 11.2929 0.0642857 11.7667 0ZM10.5881 14.5952C10.0786 14.1286 9.62381 13.7095 9.16667 13.2929C8.48095 12.669 7.80952 12.0262 7.10238 11.4286C6.54762 10.9595 5.68333 11.1381 5.32143 11.7476C5.00238 12.2857 5.12619 12.9286 5.6381 13.3976C6.97857 14.619 8.32143 15.8405 9.66191 17.0643C10.3262 17.669 10.9762 17.6571 11.6143 17.0238C14.1833 14.4738 16.7548 11.9238 19.3238 9.37143C19.4048 9.29048 19.4857 9.20952 19.5595 9.12381C20.0714 8.5119 19.9048 7.60952 19.2071 7.21905C18.669 6.91667 18.1048 7.02619 17.5976 7.53095C15.319 9.80952 13.0405 12.0881 10.7643 14.3667C10.7024 14.4286 10.6548 14.5095 10.5905 14.5952H10.5881Z" fill="#009640"/>
<path d="M10.5881 14.5953C10.6548 14.5072 10.7 14.4286 10.7619 14.3667C13.0381 12.0881 15.3167 9.80955 17.5953 7.53098C18.1 7.02622 18.6667 6.91669 19.2048 7.21908C19.9024 7.60955 20.0691 8.51193 19.5572 9.12384C19.4834 9.21193 19.4024 9.2905 19.3215 9.37146C16.7524 11.9215 14.1834 14.4738 11.6119 17.0238C10.9738 17.6572 10.3238 17.6691 9.65956 17.0643C8.31908 15.8429 6.97623 14.6215 5.63575 13.3976C5.12147 12.9286 5.00004 12.2857 5.31908 11.7476C5.68099 11.1357 6.54527 10.9596 7.10004 11.4286C7.80718 12.0262 8.47861 12.6691 9.16432 13.2929C9.62147 13.7096 10.0762 14.1262 10.5858 14.5953H10.5881Z" fill="white"/>
</svg>
