<svg width="35" height="35" viewBox="0 0 35 35" fill="none" xmlns="http://www.w3.org/2000/svg">
<g clip-path="url(#clip0_793_627)">
<path d="M17.5 35C27.165 35 35 27.165 35 17.5C35 7.83502 27.165 0 17.5 0C7.83502 0 0 7.83502 0 17.5C0 27.165 7.83502 35 17.5 35Z" fill="url(#paint0_linear_793_627)"/>
<path d="M17.5 32.5C25.7843 32.5 32.5 25.7843 32.5 17.5C32.5 9.21573 25.7843 2.5 17.5 2.5C9.21573 2.5 2.5 9.21573 2.5 17.5C2.5 25.7843 9.21573 32.5 17.5 32.5Z" fill="#EABD00"/>
<path d="M17.5101 24.6C17.9101 24.68 18.3201 24.73 18.7101 24.84C19.5001 25.05 20.2801 25.32 21.0701 25.53C21.6801 25.69 22.2901 25.7 22.8801 25.42C24.5901 24.62 24.8601 22.24 23.3501 21.03C22.9501 20.71 22.4901 20.44 22.0501 20.17C21.4801 19.82 21.0001 19.39 20.6701 18.79C20.4501 18.4 20.2001 18.03 19.9401 17.66C19.6401 17.22 19.2901 16.83 18.8101 16.57C17.6901 15.95 16.2001 16.22 15.3701 17.25C14.9401 17.78 14.5801 18.3799 14.2101 18.9599C13.9701 19.3299 13.7001 19.65 13.3401 19.9C12.9301 20.1799 12.5101 20.44 12.0901 20.7C11.1301 21.3 10.5901 22.1299 10.6501 23.2999C10.7301 24.7299 12.0401 25.85 13.4401 25.61C14.1401 25.49 14.8301 25.2699 15.5101 25.08C16.1601 24.89 16.8001 24.67 17.4901 24.62L17.5101 24.6ZM21.8601 17.29C21.8801 17.49 21.8801 17.67 21.9101 17.85C22.0301 18.55 22.3201 19.15 22.9701 19.49C23.6801 19.86 24.3801 19.7099 25.0201 19.3099C26.2901 18.5099 27.0701 16.71 26.8101 15.24C26.5201 13.58 25.0001 12.93 23.6301 13.89C22.4501 14.71 21.9401 15.91 21.8501 17.3L21.8601 17.29ZM8.08007 15.8C8.16007 16.21 8.21007 16.64 8.33007 17.04C8.64007 18.04 9.20007 18.8799 10.1301 19.4C11.3501 20.08 12.6401 19.54 13.0001 18.19C13.2701 17.2 13.0701 16.27 12.6301 15.37C12.2401 14.6 11.7001 13.97 10.8901 13.62C9.97007 13.22 9.03007 13.49 8.52007 14.28C8.23007 14.74 8.12007 15.25 8.07007 15.8H8.08007ZM22.5001 12.28C22.4901 11.52 22.3501 10.79 21.8901 10.17C21.4201 9.53995 20.8001 9.24995 20.0201 9.41995C19.4901 9.53995 19.0801 9.85995 18.7501 10.28C18.0801 11.16 17.8401 12.17 17.9101 13.25C17.9501 13.88 18.1201 14.47 18.5101 14.98C18.9801 15.6 19.6001 15.9 20.3901 15.73C20.9201 15.61 21.3301 15.29 21.6601 14.87C22.2501 14.11 22.4901 13.22 22.5201 12.28H22.5001ZM17.1101 12.89C17.0801 11.93 16.8401 11.03 16.2301 10.25C15.8401 9.75995 15.3501 9.40995 14.7001 9.36995C13.8801 9.31995 13.3201 9.75995 12.9301 10.43C12.6801 10.86 12.5501 11.34 12.5201 11.84C12.4401 12.98 12.6901 14.03 13.4201 14.93C13.7401 15.32 14.1401 15.62 14.6401 15.72C15.4201 15.88 16.0301 15.59 16.5001 14.97C16.9601 14.36 17.1001 13.64 17.1201 12.88L17.1101 12.89Z" fill="white"/>
<path d="M17.5101 24.6C16.8101 24.65 16.1801 24.87 15.5301 25.06C14.8401 25.26 14.1601 25.48 13.4601 25.59C12.0601 25.83 10.7401 24.71 10.6701 23.28C10.6101 22.11 11.1401 21.28 12.1101 20.68C12.5301 20.42 12.9501 20.16 13.3601 19.88C13.7201 19.64 13.9901 19.31 14.2301 18.94C14.6001 18.36 14.9601 17.77 15.3901 17.23C16.2201 16.2 17.7201 15.93 18.8301 16.55C19.3001 16.81 19.6501 17.21 19.9601 17.64C20.2201 18.01 20.4701 18.38 20.6901 18.77C21.0201 19.36 21.5001 19.79 22.0701 20.15C22.5101 20.42 22.9701 20.69 23.3701 21.01C24.8801 22.22 24.6101 24.6 22.9001 25.4C22.3101 25.68 21.7001 25.67 21.0901 25.51C20.3001 25.3 19.5201 25.04 18.7301 24.82C18.3401 24.71 17.9301 24.66 17.5301 24.58L17.5101 24.6Z" fill="#FFD700"/>
<path d="M21.8601 17.29C21.9601 15.9 22.4601 14.7 23.6401 13.88C25.0201 12.92 26.5301 13.58 26.8201 15.23C27.0801 16.7 26.2901 18.5 25.0301 19.3C24.3801 19.71 23.6901 19.85 22.9801 19.48C22.3201 19.14 22.0301 18.54 21.9201 17.84C21.8901 17.66 21.8801 17.48 21.8701 17.28L21.8601 17.29Z" fill="#FFD700"/>
<path d="M8.08008 15.7999C8.13008 15.2499 8.24008 14.7399 8.53008 14.2799C9.04008 13.4799 9.98008 13.2099 10.9001 13.6199C11.7101 13.9699 12.2501 14.5999 12.6401 15.3699C13.0901 16.2599 13.2801 17.1999 13.0101 18.1899C12.6401 19.5299 11.3501 20.0799 10.1401 19.3999C9.20008 18.8799 8.65008 18.0399 8.34008 17.0399C8.22008 16.6399 8.17008 16.2199 8.09008 15.7999H8.08008Z" fill="#FFD700"/>
<path d="M22.5001 12.28C22.4701 13.22 22.2301 14.11 21.6401 14.87C21.3101 15.29 20.9101 15.61 20.3701 15.73C19.5801 15.9 18.9701 15.6 18.4901 14.98C18.1001 14.47 17.9301 13.88 17.8901 13.25C17.8201 12.16 18.0601 11.16 18.7301 10.28C19.0601 9.85997 19.4601 9.53997 20.0001 9.41997C20.7901 9.24997 21.4101 9.54997 21.8701 10.17C22.3301 10.79 22.4701 11.51 22.4801 12.28H22.5001Z" fill="#FFD700"/>
<path d="M17.1101 12.8899C17.0901 13.6499 16.9501 14.3699 16.4901 14.9799C16.0201 15.5999 15.4101 15.8899 14.6301 15.7299C14.1301 15.6199 13.7301 15.3299 13.4101 14.9399C12.6801 14.0399 12.4301 12.9899 12.5101 11.8499C12.5501 11.3499 12.6701 10.8699 12.9201 10.4399C13.3101 9.75992 13.8701 9.32992 14.6901 9.37992C15.3401 9.41992 15.8301 9.75992 16.2201 10.2599C16.8401 11.0299 17.0801 11.9399 17.1001 12.8999L17.1101 12.8899Z" fill="#FFD700"/>
</g>
<defs>
<linearGradient id="paint0_linear_793_627" x1="17.5" y1="35" x2="17.5" y2="0" gradientUnits="userSpaceOnUse">
<stop stop-color="#FFD700"/>
<stop offset="0.65" stop-color="#FFD700"/>
<stop offset="1" stop-color="#FCE06D"/>
</linearGradient>
<clipPath id="clip0_793_627">
<rect width="35" height="35" fill="white"/>
</clipPath>
</defs>
</svg>
