<svg width="150" height="150" viewBox="0 0 150 150" fill="none" xmlns="http://www.w3.org/2000/svg">
<g clip-path="url(#clip0_954_296)">
<path d="M130 0H20C8.9543 0 0 8.9543 0 20V130C0 141.046 8.9543 150 20 150H130C141.046 150 150 141.046 150 130V20C150 8.9543 141.046 0 130 0Z" fill="url(#paint0_linear_954_296)"/>
<path d="M75 124.13C103.879 124.13 127.29 100.679 127.29 71.75C127.29 42.8213 103.879 19.37 75 19.37C46.121 19.37 22.71 42.8213 22.71 71.75C22.71 100.679 46.121 124.13 75 124.13Z" fill="#A4D7F5"/>
<path d="M78.61 120.52C49.73 120.52 26.32 97.07 26.32 68.14C26.32 54.59 31.45 42.25 39.88 32.95C29.34 42.53 22.72 56.37 22.72 71.75C22.72 100.68 46.13 124.13 75.01 124.13C90.37 124.13 104.18 117.5 113.74 106.94C104.46 115.38 92.14 120.52 78.61 120.52Z" fill="#83C8F1"/>
<path d="M103.51 59.99C103.21 59.99 102.92 60 102.63 60.02C103.22 58.38 103.52 56.65 103.52 54.91C103.52 46.57 96.77 39.81 88.45 39.81C82.57 39.81 77.48 43.19 75 48.11C72.52 43.19 67.43 39.81 61.55 39.81C53.23 39.81 46.48 46.57 46.48 54.91C46.48 56.65 46.78 58.38 47.37 60.02C47.08 60 46.78 59.99 46.49 59.99C39.02 59.99 32.97 66.05 32.97 73.53C32.97 81.01 39.02 87.07 46.49 87.07V132.49H103.51V87.07C110.98 87.07 117.03 81.01 117.03 73.53C117.03 66.05 110.98 59.99 103.51 59.99Z" fill="#E5ECF5"/>
<path d="M54.3 62.6L52.16 56.85C51.57 55.21 51.27 53.48 51.27 51.74C51.27 47.51 53.01 43.69 55.81 40.95C50.33 43.21 46.48 48.61 46.48 54.91C46.48 55.83 46.56 56.74 46.72 57.61L49.81 61.85L54.3 62.6ZM51.28 129.33V82.63C42.14 82.63 37.76 79.23 37.76 71.75C37.76 68.07 39.23 63.34 41.61 60.9C36.55 62.86 32.96 67.77 32.96 73.53C32.96 81.01 39.01 87.07 46.48 87.07V132.49H103.5V129.32H51.27L51.28 129.33Z" fill="#CAD8EB"/>
<path d="M88.45 63.26C93.0505 63.26 96.78 59.5216 96.78 54.91C96.78 50.2984 93.0505 46.56 88.45 46.56C83.8495 46.56 80.12 50.2984 80.12 54.91C80.12 59.5216 83.8495 63.26 88.45 63.26Z" fill="#DF95C0"/>
<path d="M61.55 63.26C66.1505 63.26 69.88 59.5216 69.88 54.91C69.88 50.2984 66.1505 46.56 61.55 46.56C56.9495 46.56 53.22 50.2984 53.22 54.91C53.22 59.5216 56.9495 63.26 61.55 63.26Z" fill="#DF95C0"/>
<path d="M65.04 59.76C60.44 59.76 56.71 56.02 56.71 51.41C56.71 50.05 57.04 48.72 57.67 47.52C55.02 48.92 53.22 51.7 53.22 54.91C53.22 59.52 56.95 63.26 61.55 63.26C64.75 63.26 67.53 61.45 68.92 58.8C67.72 59.43 66.39 59.76 65.04 59.76ZM91.87 59.76C87.27 59.76 83.54 56.02 83.54 51.41C83.54 50.05 83.87 48.72 84.5 47.52C81.85 48.92 80.05 51.7 80.05 54.91C80.05 59.52 83.78 63.26 88.38 63.26C91.58 63.26 94.36 61.45 95.75 58.8C94.55 59.43 93.22 59.76 91.87 59.76Z" fill="#D571AB"/>
<path d="M103.51 80.27C107.227 80.27 110.24 77.2524 110.24 73.53C110.24 69.8076 107.227 66.79 103.51 66.79C99.7931 66.79 96.78 69.8076 96.78 73.53C96.78 77.2524 99.7931 80.27 103.51 80.27Z" fill="#DF95C0"/>
<path d="M46.49 80.27C50.2069 80.27 53.22 77.2524 53.22 73.53C53.22 69.8076 50.2069 66.79 46.49 66.79C42.7731 66.79 39.76 69.8076 39.76 73.53C39.76 77.2524 42.7731 80.27 46.49 80.27Z" fill="#DF95C0"/>
<path d="M49.8 76.96C46.09 76.96 43.07 73.94 43.07 70.22C43.07 69.22 43.29 68.27 43.68 67.41C41.37 68.48 39.76 70.82 39.76 73.53C39.76 77.25 42.77 80.27 46.49 80.27C49.2 80.27 51.54 78.66 52.6 76.34C51.72 76.74 50.76 76.95 49.8 76.95V76.96ZM106.82 76.96C103.11 76.96 100.09 73.94 100.09 70.22C100.09 69.22 100.31 68.27 100.7 67.41C98.39 68.48 96.78 70.82 96.78 73.53C96.78 77.25 99.79 80.27 103.51 80.27C106.22 80.27 108.56 78.66 109.62 76.34C108.74 76.74 107.78 76.95 106.82 76.95V76.96Z" fill="#D571AB"/>
<path d="M92.27 82.4L74.96 65.06L57.73 82.32C53.66 86.39 53.66 93 57.73 97.07L57.81 97.15C61.88 101.22 68.47 101.22 72.53 97.15L75.04 94.64L77.55 97.15C81.62 101.22 88.21 101.22 92.27 97.15C96.34 93.08 96.34 86.47 92.27 82.4Z" fill="#DF95C0"/>
<path d="M80.93 93.77L77.18 90.02L75 92.27L75.91 93.77C65.87 103.24 51.66 88.98 61.1 78.94L57.72 82.32C53.65 86.39 53.65 93 57.72 97.07L57.8 97.15C61.87 101.22 68.46 101.22 72.52 97.15L75.03 94.64L77.54 97.15C81.61 101.22 88.2 101.22 92.26 97.15C92.83 96.58 93.33 95.95 93.75 95.26C89.74 97.75 84.4 97.26 80.91 93.77H80.93Z" fill="#D571AB"/>
<path d="M59.87 86.79H63.23V90.16H59.87V86.79ZM66.59 86.79H69.95V90.16H66.59V86.79ZM53.14 29.52H56.5V32.89H53.14V29.52ZM59.87 29.52H63.23V32.89H59.87V29.52Z" fill="white"/>
<path d="M88.46 44.83C82.93 44.83 78.44 49.33 78.44 54.87C78.44 60.41 82.94 64.91 88.46 64.91C93.98 64.91 98.48 60.41 98.48 54.87C98.48 49.33 93.98 44.83 88.46 44.83ZM88.46 61.54C84.79 61.54 81.8 58.55 81.8 54.87C81.8 51.19 84.79 48.2 88.46 48.2C92.13 48.2 95.12 51.19 95.12 54.87C95.12 58.55 92.13 61.54 88.46 61.54ZM61.54 44.83C56.01 44.83 51.52 49.33 51.52 54.87C51.52 60.41 56.02 64.91 61.54 64.91C67.06 64.91 71.56 60.41 71.56 54.87C71.56 49.33 67.06 44.83 61.54 44.83ZM61.54 61.54C57.87 61.54 54.88 58.55 54.88 54.87C54.88 51.19 57.87 48.2 61.54 48.2C65.21 48.2 68.2 51.19 68.2 54.87C68.2 58.55 65.21 61.54 61.54 61.54ZM111.94 73.5C111.94 68.85 108.17 65.07 103.53 65.07C98.89 65.07 95.12 68.85 95.12 73.5C95.12 78.15 98.89 81.93 103.53 81.93C108.17 81.93 111.94 78.15 111.94 73.5ZM98.48 73.5C98.48 70.71 100.74 68.44 103.53 68.44C106.32 68.44 108.58 70.71 108.58 73.5C108.58 76.29 106.32 78.56 103.53 78.56C100.74 78.56 98.48 76.29 98.48 73.5ZM46.47 65.07C41.83 65.07 38.06 68.85 38.06 73.5C38.06 78.15 41.83 81.93 46.47 81.93C51.11 81.93 54.88 78.15 54.88 73.5C54.88 68.85 51.11 65.07 46.47 65.07ZM46.47 78.56C43.69 78.56 41.42 76.29 41.42 73.5C41.42 70.71 43.68 68.44 46.47 68.44C49.26 68.44 51.52 70.71 51.52 73.5C51.52 76.29 49.26 78.56 46.47 78.56ZM101.84 98.57H105.2V101.94H101.84V98.57Z" fill="black"/>
<path d="M34.63 73.5C34.86 65.12 41.86 60.53 49.8 61.83C48.99 59.67 48.06 57.21 48.14 54.87C48.14 47.47 54.15 41.45 61.53 41.45C68.35 41.48 72.49 45.84 74.99 51.8C77.48 45.84 81.64 41.48 88.45 41.45C95.84 41.45 101.84 47.47 101.84 54.87C101.92 57.21 100.99 59.67 100.18 61.83C119.14 58.89 120.87 86.08 101.83 85.37V95.2H105.19V88.65C112.79 87.81 118.72 81.34 118.72 73.51C118.72 65.68 112.61 59.01 104.85 58.33C107.11 48.08 98.94 37.96 88.45 38.08C83.06 38.08 78.12 40.62 74.99 44.86C71.86 40.62 66.92 38.08 61.53 38.08C51.03 37.96 42.87 48.08 45.13 58.33C37.37 59.01 31.26 65.56 31.26 73.51C31.26 81.46 37.19 87.81 44.79 88.65V112.32C31.94 102.75 24.36 87.76 24.36 71.61C24.36 62.24 26.93 53.08 31.79 45.14L28.92 43.38C23.73 51.86 20.99 61.62 20.99 71.62C20.99 89.68 29.87 106.37 44.78 116.47V132.53H48.14V85.4C41.06 86.12 34.57 80.81 34.61 73.53L34.63 73.5Z" fill="black"/>
<path d="M74.96 62.64L67.21 70.41L69.59 72.79L74.96 67.41L91.09 83.57C92.74 85.22 93.65 87.42 93.65 89.76C93.81 97.39 84.03 101.46 78.74 95.95L75.04 92.25C72.23 94.98 69.54 98.7 65.17 98.52C60.45 98.61 56.26 94.42 56.35 89.69C56.35 87.35 57.26 85.16 58.91 83.5L67.06 75.33L64.68 72.95L56.53 81.12C54.24 83.41 52.99 86.45 52.99 89.69C53.29 101.58 67.55 106.18 75.04 97.02C82.47 106.13 96.75 101.64 97.01 89.77C97.01 86.53 95.75 83.49 93.47 81.2L74.96 62.65V62.64Z" fill="black"/>
<path d="M129 71.6C129 57.15 123.38 43.56 113.18 33.35C102.98 23.13 89.42 17.5 75 17.5C66.24 17.5 57.53 19.65 49.83 23.72C42.38 27.66 35.85 33.39 30.96 40.28L33.7 42.23C43.2 28.85 58.63 20.86 75 20.86C102.92 20.86 125.63 43.62 125.63 71.59C125.63 87.73 118.05 102.74 105.2 112.3V105.3H101.84V132.49H105.2V116.43C120.11 106.33 128.99 89.62 128.99 71.58L129 71.6Z" fill="black"/>
</g>
<defs>
<linearGradient id="paint0_linear_954_296" x1="75" y1="150" x2="75" y2="0" gradientUnits="userSpaceOnUse">
<stop stop-color="#FF7015"/>
<stop offset="0.5" stop-color="#FF7015"/>
<stop offset="1" stop-color="#FFD700"/>
</linearGradient>
<clipPath id="clip0_954_296">
<rect width="150" height="150" fill="white"/>
</clipPath>
</defs>
</svg>
