<svg width="20" height="15" viewBox="0 0 20 15" fill="none" xmlns="http://www.w3.org/2000/svg">
<path d="M7.4018 10.255C7.49243 10.1353 7.55393 10.0284 7.63808 9.94429C10.7324 6.84669 13.8301 3.74908 16.9277 0.651479C17.6139 -0.0347195 18.3842 -0.183612 19.1157 0.22746C20.0641 0.758293 20.2907 1.98503 19.5948 2.81689C19.4944 2.93665 19.3844 3.04346 19.2743 3.15351C15.7818 6.62011 12.2893 10.0899 8.79362 13.5565C7.92616 14.4175 7.04251 14.4337 6.13945 13.6116C4.31714 11.9511 2.49159 10.2906 0.669282 8.62692C-0.0298637 7.98927 -0.19494 7.11534 0.23879 6.38383C0.730781 5.55197 1.90573 5.31245 2.65991 5.9501C3.62123 6.76253 4.53401 7.63646 5.4662 8.4845C6.08766 9.05094 6.70589 9.61738 7.39856 10.255H7.4018Z" fill="#27A5C1"/>
</svg>
