<svg width="150" height="150" viewBox="0 0 150 150" fill="none" xmlns="http://www.w3.org/2000/svg">
<g clip-path="url(#clip0_959_518)">
<path d="M130 0H20C8.9543 0 0 8.9543 0 20V130C0 141.046 8.9543 150 20 150H130C141.046 150 150 141.046 150 130V20C150 8.9543 141.046 0 130 0Z" fill="url(#paint0_linear_959_518)"/>
<path d="M81.35 48.51H76.73V32.44C76.73 31.08 75.85 29.96 74.77 29.96C73.69 29.96 72.81 31.08 72.81 32.44V48.51H68.19C67.11 48.51 66.23 49.63 66.23 50.99V84.12C66.23 85.48 67.11 86.6 68.19 86.6H72.81V107.63C72.81 108.99 73.69 110.11 74.77 110.11C75.85 110.11 76.73 108.99 76.73 107.63V86.6H81.35C82.43 86.6 83.31 85.48 83.31 84.12V50.99C83.31 49.63 82.43 48.51 81.35 48.51ZM79.39 81.65H70.14V53.48H79.39V81.65Z" fill="black"/>
<path d="M70.14 53.47H79.39V81.64H70.14V53.47Z" fill="#009245"/>
<path d="M130.54 41.07H125.92V27.48C125.92 26.12 125.04 25 123.96 25C122.88 25 122 26.12 122 27.48V41.07H117.38C116.3 41.07 115.42 42.19 115.42 43.55V76.68C115.42 78.04 116.3 79.16 117.38 79.16H122V100.19C122 101.55 122.88 102.67 123.96 102.67C125.04 102.67 125.92 101.55 125.92 100.19V79.16H130.54C131.62 79.16 132.5 78.04 132.5 76.68V43.55C132.5 42.19 131.62 41.07 130.54 41.07ZM128.58 74.21H119.33V46.04H128.58V74.21Z" fill="black"/>
<path d="M119.33 46.03H128.58V74.2H119.33V46.03Z" fill="#009245"/>
<path d="M105.72 70.83H101.1V49.8C101.1 48.44 100.22 47.32 99.14 47.32C98.06 47.32 97.18 48.44 97.18 49.8V70.83H92.56C91.48 70.83 90.6 71.95 90.6 73.31V106.44C90.6 107.8 91.48 108.92 92.56 108.92H97.18V122.51C97.18 123.87 98.06 124.99 99.14 124.99C100.22 124.99 101.1 123.87 101.1 122.51V108.92H105.72C106.8 108.92 107.68 107.8 107.68 106.44V73.31C107.68 71.95 106.8 70.83 105.72 70.83ZM103.76 103.97H94.51V75.8H103.76V103.97Z" fill="black"/>
<path d="M94.51 75.79H103.76V103.96H94.51V75.79Z" fill="#ED1C24"/>
<path d="M32.62 53.47H28V37.4C28 36.04 27.12 34.92 26.04 34.92C24.96 34.92 24.08 36.04 24.08 37.4V53.47H19.46C18.38 53.47 17.5 54.59 17.5 55.95V89.08C17.5 90.44 18.38 91.56 19.46 91.56H24.08V112.59C24.08 113.95 24.96 115.07 26.04 115.07C27.12 115.07 28 113.95 28 112.59V91.56H32.62C33.7 91.56 34.58 90.44 34.58 89.08V55.95C34.58 54.59 33.7 53.47 32.62 53.47ZM30.67 86.61H21.42V58.44H30.67V86.61Z" fill="black"/>
<path d="M21.42 58.43H30.67V86.6H21.42V58.43Z" fill="#009245"/>
<path d="M56.98 65.87H52.36V44.84C52.36 43.48 51.5 42.36 50.4 42.36C49.3 42.36 48.44 43.48 48.44 44.84V65.87H43.84C42.74 65.87 41.88 66.99 41.88 68.35V101.48C41.88 102.84 42.74 103.96 43.84 103.96H48.44V117.55C48.44 118.91 49.32 120.03 50.4 120.03C51.48 120.03 52.36 118.91 52.36 117.55V103.96H56.98C58.08 103.96 58.94 102.84 58.94 101.48V68.35C58.94 66.99 58.08 65.87 56.98 65.87ZM55.02 99.01H45.79V70.84H55.02V99.01Z" fill="black"/>
<path d="M45.79 70.83H55.02V99H45.79V70.83Z" fill="#ED1C24"/>
</g>
<defs>
<linearGradient id="paint0_linear_959_518" x1="75" y1="0" x2="75" y2="150" gradientUnits="userSpaceOnUse">
<stop stop-color="#00E015"/>
<stop offset="0.85" stop-color="#014509"/>
<stop offset="1" stop-color="#021000"/>
</linearGradient>
<clipPath id="clip0_959_518">
<rect width="150" height="150" fill="white"/>
</clipPath>
</defs>
</svg>
