<svg width="150" height="150" viewBox="0 0 150 150" fill="none" xmlns="http://www.w3.org/2000/svg">
<g clip-path="url(#clip0_958_450)">
<path d="M130 0H20C8.9543 0 0 8.9543 0 20V130C0 141.046 8.9543 150 20 150H130C141.046 150 150 141.046 150 130V20C150 8.9543 141.046 0 130 0Z" fill="url(#paint0_linear_958_450)"/>
<path d="M125.93 39.82L105.78 30.42V101.33L129.67 50.1C131.47 46.23 129.8 41.63 125.93 39.82Z" fill="#FFA000"/>
<path d="M98.05 21.29H31.02C26.7508 21.29 23.29 24.7508 23.29 29.02V120.98C23.29 125.249 26.7508 128.71 31.02 128.71H98.05C102.319 128.71 105.78 125.249 105.78 120.98V29.02C105.78 24.7508 102.319 21.29 98.05 21.29Z" fill="#FFC107"/>
<path d="M94.61 37.62H34.46C33.0351 37.62 31.88 38.7751 31.88 40.2V90.04C31.88 91.4649 33.0351 92.62 34.46 92.62H94.61C96.0349 92.62 97.19 91.4649 97.19 90.04V40.2C97.19 38.7751 96.0349 37.62 94.61 37.62Z" fill="#ECEFF1"/>
<path d="M62.3 47.93L53.88 62.5C53.17 63.73 53.59 65.31 54.82 66.02C54.82 66.02 54.82 66.02 54.83 66.02L63.25 70.82C64.04 71.27 65.01 71.27 65.8 70.82L74.22 66.02C75.46 65.32 75.89 63.74 75.19 62.51C75.19 62.51 75.19 62.5 75.19 62.49L66.77 47.92C66.06 46.69 64.48 46.26 63.25 46.97C62.86 47.2 62.53 47.52 62.3 47.92V47.93Z" fill="#37474F"/>
<path d="M63.16 76.2L54.88 70.98C54.48 70.73 53.95 70.86 53.7 71.26C53.51 71.57 53.54 71.97 53.76 72.25L62.54 82.9C63.45 84 65.07 84.15 66.17 83.25C66.3 83.15 66.41 83.03 66.52 82.9L75.31 72.25C75.61 71.88 75.55 71.34 75.18 71.04C74.9 70.81 74.5 70.78 74.19 70.98L65.91 76.2C65.07 76.73 64 76.73 63.16 76.2Z" fill="#37474F"/>
<path d="M130.71 111.77V88.93C130.71 87.09 129.73 85.38 128.13 84.46L108.36 73.05C106.76 72.13 104.8 72.13 103.2 73.05L83.43 84.47C81.83 85.39 80.85 87.1 80.85 88.94V111.78C80.85 113.62 81.83 115.33 83.43 116.25L103.2 127.66C104.8 128.58 106.76 128.58 108.36 127.66L128.13 116.24C129.73 115.32 130.71 113.62 130.71 111.77Z" fill="#673AB7"/>
<path d="M31.88 31.17H51.64C52.35 31.17 52.93 30.59 52.93 29.88C52.93 29.17 52.35 28.59 51.64 28.59H31.88C31.17 28.59 30.59 29.17 30.59 29.88C30.59 30.59 31.17 31.17 31.88 31.17ZM67.89 47.28C66.82 45.43 64.46 44.8 62.61 45.87C62.02 46.21 61.54 46.7 61.2 47.28L52.78 61.86C51.71 63.71 52.35 66.07 54.19 67.14C54.19 67.14 54.2 67.14 54.21 67.15L62.63 71.95C63.82 72.62 65.27 72.62 66.46 71.95L74.88 67.15C76.74 66.09 77.38 63.73 76.32 61.87C76.32 61.87 76.32 61.86 76.31 61.85L67.89 47.27V47.28ZM74.2 64.13C74.11 64.46 73.9 64.74 73.6 64.91L65.18 69.71C64.78 69.93 64.3 69.93 63.9 69.71L55.48 64.91C54.86 64.56 54.65 63.77 55 63.15L63.42 48.58C63.78 47.96 64.56 47.75 65.18 48.11C65.38 48.22 65.54 48.39 65.65 48.58L74.07 63.15C74.24 63.45 74.28 63.8 74.19 64.13H74.2Z" fill="black"/>
<path d="M73.5 69.89L65.22 75.11C64.8 75.37 64.27 75.37 63.85 75.11L55.57 69.89C54.57 69.25 53.24 69.55 52.6 70.55C52.1 71.34 52.16 72.36 52.76 73.07L61.55 83.72C62.93 85.37 65.38 85.59 67.03 84.21C67.21 84.06 67.37 83.9 67.52 83.72L76.31 73.07C77.06 72.15 76.93 70.8 76.02 70.05C75.31 69.46 74.3 69.4 73.51 69.89H73.5ZM65.53 82.08C65.08 82.63 64.26 82.71 63.72 82.25C63.66 82.2 63.6 82.14 63.55 82.08L56.47 73.49L62.49 77.28C63.75 78.07 65.35 78.07 66.61 77.28L72.63 73.49L65.55 82.08H65.53Z" fill="black"/>
<path d="M128.78 83.35L118.39 77.35L130.84 50.64C132.94 46.12 130.99 40.76 126.48 38.65L107.08 29.6V29.02C107.08 24.04 103.04 20 98.06 20H31.02C26.04 20 22 24.04 22 29.02V120.97C22 125.95 26.04 129.99 31.02 129.99H98.04C99.63 129.99 101.19 129.57 102.56 128.76C104.55 129.9 107 129.9 108.99 128.76L128.76 117.34C130.75 116.19 131.98 114.06 131.98 111.75V88.92C131.98 86.62 130.75 84.49 128.76 83.34L128.78 83.35ZM107.07 32.45L125.38 40.99C128.6 42.5 130 46.33 128.5 49.56L116.14 76.06L109 71.94C108.4 71.6 107.75 71.36 107.07 71.23V32.46V32.45ZM98.05 127.42H31.02C27.46 127.42 24.58 124.53 24.58 120.97V29.02C24.58 25.46 27.47 22.58 31.02 22.57H98.04C101.6 22.57 104.48 25.46 104.48 29.02V71.22C103.8 71.35 103.15 71.6 102.55 71.94L98.47 74.3V40.2C98.47 38.07 96.74 36.34 94.6 36.33H34.45C32.32 36.33 30.59 38.06 30.58 40.2V90.04C30.58 92.17 32.31 93.9 34.45 93.91H79.55V102.5H31.88C31.17 102.5 30.59 103.08 30.59 103.79C30.59 104.5 31.17 105.08 31.88 105.08H79.56V111.77C79.56 112.12 79.6 112.47 79.66 112.81H31.88C31.17 112.81 30.59 113.39 30.59 114.1C30.59 114.81 31.17 115.39 31.88 115.39H80.69C81.23 116.19 81.94 116.86 82.78 117.35L99.78 127.17C99.21 127.33 98.63 127.42 98.04 127.42H98.05ZM95.9 40.2V75.79L82.79 83.36C80.8 84.51 79.57 86.64 79.57 88.95V91.34H34.47C33.76 91.34 33.18 90.76 33.18 90.05V40.21C33.18 39.5 33.76 38.92 34.47 38.92H94.62C95.33 38.92 95.91 39.5 95.91 40.21L95.9 40.2ZM129.42 111.77C129.42 113.15 128.68 114.43 127.49 115.12L107.72 126.54C106.52 127.23 105.05 127.23 103.85 126.54L84.08 115.12C82.88 114.43 82.15 113.15 82.15 111.77V88.94C82.15 87.56 82.89 86.28 84.08 85.59L103.85 74.17C105.05 73.48 106.52 73.48 107.72 74.17L127.49 85.59C128.69 86.28 129.42 87.56 129.42 88.94V111.77Z" fill="black"/>
<path d="M109.65 92.62H101.92C101.21 92.62 100.63 93.2 100.63 93.91V106.8C100.63 107.51 101.21 108.09 101.92 108.09C102.63 108.09 103.21 107.51 103.21 106.8V102.07H108.8C109.51 102.07 110.09 101.49 110.09 100.78C110.09 100.07 109.51 99.49 108.8 99.49H103.21V95.19H109.65C110.36 95.19 110.94 94.61 110.94 93.9C110.94 93.19 110.36 92.61 109.65 92.61V92.62ZM96.76 92.62C96.05 92.62 95.47 93.2 95.47 93.91V102.15L90.13 93.25C89.76 92.64 88.97 92.44 88.36 92.81C87.97 93.04 87.73 93.46 87.73 93.92V106.81C87.73 107.52 88.31 108.1 89.02 108.1C89.73 108.1 90.31 107.52 90.31 106.81V98.57L95.65 107.47C96.02 108.08 96.81 108.28 97.42 107.91C97.81 107.68 98.05 107.26 98.05 106.8V93.91C98.05 93.2 97.47 92.62 96.76 92.62ZM122.54 92.62H114.81C114.1 92.62 113.52 93.2 113.52 93.91C113.52 94.62 114.1 95.2 114.81 95.2H117.39V106.8C117.39 107.51 117.97 108.09 118.68 108.09C119.39 108.09 119.97 107.51 119.97 106.8V95.2H122.55C123.26 95.2 123.84 94.62 123.84 93.91C123.84 93.2 123.26 92.62 122.55 92.62H122.54Z" fill="black"/>
</g>
<defs>
<linearGradient id="paint0_linear_958_450" x1="75" y1="0" x2="75" y2="150" gradientUnits="userSpaceOnUse">
<stop stop-color="#800093"/>
<stop offset="0.5" stop-color="#FF0042"/>
<stop offset="1" stop-color="#FF0042"/>
</linearGradient>
<clipPath id="clip0_958_450">
<rect width="150" height="150" fill="white"/>
</clipPath>
</defs>
</svg>
