<svg width="35" height="35" viewBox="0 0 35 35" fill="none" xmlns="http://www.w3.org/2000/svg">
<g clip-path="url(#clip0_799_767)">
<path d="M17.5 35C27.165 35 35 27.165 35 17.5C35 7.83502 27.165 0 17.5 0C7.83502 0 0 7.83502 0 17.5C0 27.165 7.83502 35 17.5 35Z" fill="#27A5C1"/>
<path d="M20.01 25.81C19.93 26.71 20.54 27.46 21.38 27.47C22.95 27.49 24.52 27.49 26.1 27.47C26.84 27.47 27.47 26.83 27.48 26.09C27.49 24.52 27.49 22.95 27.48 21.37C27.48 20.72 26.98 20.15 26.33 20.02C26.17 19.99 25.99 19.99 25.83 19.98C25.42 19.98 25 19.98 24.57 19.98V19.71C24.57 16.96 24.57 14.2 24.57 11.45C24.57 11.37 24.57 11.28 24.57 11.2C24.55 10.82 24.26 10.5 23.9 10.44C23.5 10.37 23.11 10.58 22.98 10.95C22.93 11.09 22.92 11.24 22.92 11.39C22.92 14.17 22.92 16.95 22.92 19.73V19.99C22.4 19.99 21.9 19.99 21.41 19.99C20.55 20.01 19.87 20.84 20.04 21.65C20.11 21.65 20.19 21.65 20.27 21.65C21.47 21.65 22.67 21.63 23.88 21.66C25.11 21.69 26.04 22.88 25.81 24.08C25.62 25.11 24.79 25.79 23.73 25.8C22.58 25.8 21.43 25.8 20.28 25.8C20.2 25.8 20.13 25.8 20.04 25.8L20.01 25.81Z" fill="white"/>
<path d="M26.2699 7.52002C26.2699 7.52002 26.3599 7.56002 26.4099 7.57002C27.0499 7.76002 27.4699 8.31002 27.4799 8.97002C27.4799 10.5 27.4799 12.02 27.4799 13.55C27.4799 14.44 26.6999 15.11 25.8199 14.98C25.8199 14.91 25.8199 14.83 25.8199 14.76C25.8199 13.61 25.8199 12.46 25.8199 11.31C25.8199 10.24 25.1399 9.42002 24.1099 9.22002C22.8899 8.99002 21.6999 9.92002 21.6799 11.15C21.6499 12.35 21.6799 13.55 21.6699 14.76C21.6699 14.84 21.6699 14.91 21.6699 14.98C20.8099 15.1 20.0299 14.45 20.0099 13.61C19.9999 13.18 20.0099 12.75 20.0099 12.32C20.0099 12.25 20.0099 12.18 20.0099 12.09C19.9099 12.09 19.8299 12.09 19.7499 12.09C16.9799 12.09 14.1999 12.09 11.4299 12.09C11.2899 12.09 11.1399 12.09 11.0099 12.04C10.6199 11.92 10.3999 11.53 10.4699 11.12C10.5299 10.75 10.8499 10.46 11.2399 10.44C11.3199 10.44 11.3999 10.44 11.4699 10.44C14.2199 10.44 16.9799 10.44 19.7299 10.44H19.9999C19.9999 10.37 20.0099 10.31 20.0099 10.25C20.0099 9.85002 20.0099 9.46002 20.0099 9.06002C20.0099 8.30002 20.4199 7.76002 21.1499 7.56002C21.1699 7.56002 21.1899 7.54002 21.2199 7.52002C22.9099 7.52002 24.5999 7.52002 26.2899 7.52002H26.2699Z" fill="black"/>
<path d="M13.79 7.51998C13.86 7.54998 13.93 7.56998 14.01 7.59998C14.67 7.81998 15.08 8.47998 14.98 9.18998C14.91 9.18998 14.83 9.18998 14.76 9.18998C13.61 9.18998 12.46 9.18998 11.31 9.18998C10.23 9.18998 9.41001 9.87998 9.21001 10.91C8.99001 12.1 9.92001 13.3 11.13 13.32C12.34 13.35 13.55 13.32 14.75 13.33C14.83 13.33 14.9 13.33 14.97 13.33C15.1 14.19 14.44 14.97 13.58 14.99C13.16 15 12.74 14.99 12.31 14.99C12.24 14.99 12.17 14.99 12.08 14.99C12.08 15.09 12.08 15.17 12.08 15.25C12.08 18.02 12.08 20.8 12.08 23.57C12.08 23.71 12.08 23.86 12.03 23.99C11.91 24.38 11.52 24.6 11.11 24.53C10.74 24.47 10.45 24.15 10.43 23.76C10.43 23.68 10.43 23.6 10.43 23.53C10.43 20.77 10.43 18.01 10.43 15.25V14.98C9.99001 14.98 9.57001 14.98 9.14001 14.98C8.26001 14.98 7.79001 14.63 7.54001 13.8C7.54001 13.79 7.52001 13.78 7.51001 13.77C7.51001 12.08 7.51001 10.39 7.51001 8.69998C7.53001 8.62998 7.56001 8.56998 7.58001 8.49998C7.71001 8.09998 7.96001 7.80998 8.34001 7.62998C8.46001 7.56998 8.59001 7.52998 8.72001 7.47998C10.41 7.47998 12.1 7.47998 13.79 7.47998V7.51998Z" fill="black"/>
<path d="M7.52001 21.2C7.55001 21.13 7.57001 21.06 7.60001 20.98C7.82001 20.32 8.48001 19.91 9.19001 20.01C9.19001 20.08 9.19001 20.16 9.19001 20.23C9.19001 21.38 9.19001 22.53 9.19001 23.68C9.19001 24.76 9.88001 25.58 10.92 25.78C12.11 26.01 13.31 25.07 13.33 23.86C13.36 22.65 13.33 21.44 13.34 20.24C13.34 20.16 13.34 20.09 13.34 20.02C14.21 19.89 14.98 20.55 15 21.41C15.01 21.83 15 22.25 15 22.68C15 22.75 15 22.82 15 22.91H15.26C18.03 22.91 20.81 22.91 23.58 22.91C23.72 22.91 23.87 22.91 24 22.96C24.39 23.08 24.61 23.47 24.54 23.88C24.48 24.25 24.16 24.54 23.77 24.56C23.69 24.56 23.6 24.56 23.52 24.56C20.77 24.56 18.02 24.56 15.28 24.56H15.01C15.01 24.63 15 24.69 15 24.75C15 25.17 15 25.58 15 26C15 26.83 14.36 27.47 13.53 27.47C12.03 27.47 10.53 27.47 9.03001 27.47C8.29001 27.47 7.75001 27.05 7.55001 26.33C7.55001 26.31 7.53001 26.29 7.51001 26.26C7.51001 24.57 7.51001 22.88 7.51001 21.19L7.52001 21.2Z" fill="black"/>
<path d="M20.0099 25.81C20.0999 25.81 20.1799 25.81 20.2499 25.81C21.3999 25.81 22.55 25.81 23.7 25.81C24.77 25.81 25.59 25.12 25.78 24.09C26.01 22.88 25.08 21.69 23.85 21.67C22.65 21.64 21.4499 21.67 20.2399 21.66C20.1599 21.66 20.0899 21.66 20.0099 21.66C19.8399 20.84 20.5299 20.02 21.3799 20C21.8699 19.99 22.3699 20 22.8899 20V19.74C22.8899 16.96 22.8899 14.18 22.8899 11.4C22.8899 11.25 22.89 11.1 22.95 10.96C23.08 10.59 23.47 10.38 23.87 10.45C24.23 10.51 24.52 10.83 24.54 11.21C24.54 11.29 24.54 11.38 24.54 11.46C24.54 14.21 24.54 16.97 24.54 19.72V19.99C24.97 19.99 25.3799 19.99 25.7999 19.99C25.9699 19.99 26.1399 19.99 26.2999 20.03C26.9399 20.15 27.4399 20.72 27.45 21.38C27.46 22.95 27.46 24.52 27.45 26.1C27.45 26.84 26.8099 27.47 26.0699 27.48C24.4999 27.49 22.93 27.5 21.35 27.48C20.51 27.48 19.8999 26.72 19.9799 25.82L20.0099 25.81Z" fill="black"/>
</g>
<defs>
<clipPath id="clip0_799_767">
<rect width="35" height="35" fill="white"/>
</clipPath>
</defs>
</svg>
