<svg width="35" height="35" viewBox="0 0 35 35" fill="none" xmlns="http://www.w3.org/2000/svg">
<g clip-path="url(#clip0_835_271)">
<path d="M5.50329 0.85662C5.64662 1.08995 5.72329 1.28329 5.85662 1.42329C6.63662 2.21995 7.42662 3.00329 8.21662 3.78662C8.55995 4.12662 8.98662 4.14995 9.26995 3.85995C9.55662 3.56662 9.52996 3.15662 9.17996 2.80329C8.50662 2.12662 7.82995 1.45329 7.15329 0.779953C6.99995 0.62662 6.85329 0.469953 6.68329 0.333286C6.45662 0.153286 6.17996 0.11662 5.95329 0.283286C5.77329 0.41662 5.65995 0.64662 5.49995 0.85662H5.50329ZM25.3233 3.41662C25.4933 3.62329 25.6166 3.86329 25.8166 3.98662C26.0766 4.14995 26.3733 4.07329 26.5966 3.84995C27.42 3.02995 28.2466 2.21329 29.06 1.38329C29.3533 1.08662 29.3533 0.673286 29.0933 0.403286C28.8233 0.119953 28.4 0.113286 28.09 0.419953C27.27 1.22662 26.4533 2.03995 25.65 2.85995C25.5233 2.98995 25.46 3.17995 25.3233 3.41662ZM4.77995 30.7766C5.15995 30.7766 5.45662 30.4933 5.46995 30.12C5.47995 29.74 5.16662 29.4133 4.78995 29.4066C4.41662 29.4033 4.09329 29.73 4.09995 30.1066C4.10662 30.48 4.40329 30.7733 4.77995 30.7733V30.7766Z" fill="white"/>
<path d="M9.36668 35.0001C8.64669 34.8367 8.12002 34.3801 7.63335 33.8534C7.31669 33.5101 6.97002 33.1934 6.64669 32.8601C6.33669 32.5401 6.31669 32.1367 6.58669 31.8534C6.86669 31.5601 7.28669 31.5667 7.61669 31.8867C8.08335 32.3401 8.53335 32.8067 8.99669 33.2601C9.49335 33.7467 9.98668 33.7434 10.4867 33.2534C10.82 32.9267 11.15 32.5934 11.4767 32.2634C12.01 31.7234 12 31.2934 11.4634 30.7534C10.2367 29.5167 9.02002 28.2701 7.79335 27.0334C6.71669 25.9501 5.63669 24.8734 4.55335 23.7967C4.39335 23.6367 4.22335 23.4867 4.04335 23.3467C3.77002 23.1334 3.28669 23.1534 2.99669 23.4201C2.53669 23.8467 2.09002 24.2867 1.66669 24.7467C1.31669 25.1267 1.36669 25.6301 1.76002 26.0334C2.23669 26.5234 2.72669 27.0001 3.20669 27.4867C3.42669 27.7101 3.49335 27.9767 3.36002 28.2701C3.23335 28.5501 3.00335 28.6967 2.70335 28.6601C2.53669 28.6401 2.35002 28.5501 2.22669 28.4367C1.69669 27.9334 1.17669 27.4234 0.676686 26.8934C-0.146648 26.0167 -0.153314 24.6767 0.666686 23.7934C1.10002 23.3267 1.55002 22.8701 2.02002 22.4434C2.68002 21.8434 3.45335 21.7001 4.31002 21.9501C4.42002 21.9834 4.60002 21.9901 4.67002 21.9234C5.35002 21.2667 6.01669 20.5967 6.68669 19.9267C6.73335 19.8801 6.77669 19.8267 6.82002 19.7801C5.45335 18.3567 5.98669 16.3601 7.61335 15.6901C6.73669 14.1834 7.46002 12.4734 9.09669 12.0067C8.85669 10.5101 9.45002 9.50005 10.8534 9.01339C10.8734 8.59339 10.83 8.17672 10.9167 7.79005C11.21 6.49339 12.47 5.74672 13.7967 6.02672C13.9267 6.05339 14.1067 6.01672 14.2134 5.94339C14.8134 5.52339 15.47 5.58339 16.1234 5.70339C17.6 5.97005 19.0734 6.26339 20.55 6.53672C20.8267 6.58672 21.12 6.55672 21.3967 6.60339C22.7667 6.83339 23.6067 8.01339 23.39 9.38339C23.38 9.45005 23.3767 9.52005 23.3634 9.61672C24.0034 9.79672 24.5334 10.1434 24.8867 10.7267C25.2434 11.3134 25.2967 11.9434 25.1567 12.5967C26.61 13.0834 27.2134 14.1601 26.9767 15.6301C27.8834 15.8867 28.5134 16.4534 28.7567 17.3801C28.9934 18.2967 28.7067 19.0834 28.0367 19.7767C28.6034 20.3434 29.1567 20.8967 29.71 21.4501C29.7667 21.5067 29.83 21.5567 29.8767 21.6201C30.1234 21.9567 30.38 22.0367 30.82 21.8834C31.5934 21.6167 32.3367 21.8101 32.9467 22.3634C33.4267 22.8001 33.8867 23.2601 34.3267 23.7367C35.1567 24.6401 35.1567 25.9867 34.2934 26.8601C31.8234 29.3534 29.34 31.8334 26.8467 34.3001C25.9434 35.1934 24.56 35.1634 23.6434 34.2767C23.2334 33.8801 22.8267 33.4801 22.4334 33.0701C21.74 32.3401 21.5634 31.4901 21.9367 30.5501C22.01 30.3634 21.9667 30.2667 21.8434 30.1434C21.0167 29.3267 20.2 28.5001 19.37 27.6867C19.29 27.6067 19.1634 27.5367 19.0567 27.5334C18.33 27.5034 17.6 27.4901 16.8734 27.4767C16.6134 27.4701 16.34 27.4367 16.09 27.4934C15.8367 27.5501 15.5567 27.6501 15.3734 27.8201C14.5967 28.5567 13.8534 29.3267 13.09 30.0767C12.95 30.2167 12.92 30.3167 13.0134 30.5101C13.44 31.4067 13.28 32.3767 12.59 33.1001C12.19 33.5201 11.8034 33.9634 11.35 34.3201C10.9867 34.6067 10.53 34.7801 10.1167 35.0034H9.36335L9.36668 35.0001ZM5.70335 22.8534C7.82669 24.9867 9.91669 27.09 12.0267 29.2101C12.81 28.4234 13.62 27.6234 14.4134 26.8101C14.8434 26.3701 15.3534 26.1267 15.96 26.1134C16.5967 26.1001 17.2367 26.0934 17.87 26.1501C18.9834 26.2501 19.9734 26.1067 20.7134 25.1434C20.9934 24.7801 21.45 24.7934 21.7334 25.0801C22.0234 25.3734 21.9934 25.7534 21.6767 26.1134C21.3834 26.4467 21.1067 26.7967 20.8567 27.1001C21.4934 27.7434 22.2334 28.4901 22.9534 29.2134C25.03 27.1267 27.1267 25.0234 29.1634 22.9801C28.4634 22.2734 27.7367 21.5434 27.0067 20.8034C26.8667 20.9367 26.7134 21.1034 26.5367 21.2467C26.21 21.5067 25.7767 21.4401 25.5467 21.1067C25.3434 20.8167 25.3834 20.4734 25.6734 20.1801C26.1667 19.6767 26.68 19.1901 27.1667 18.6767C27.57 18.2534 27.56 17.6467 27.1767 17.2634C26.7834 16.8701 26.1967 16.8567 25.76 17.2434C25.5734 17.4101 25.4034 17.5967 25.2234 17.7701C24.8634 18.1167 24.4634 18.1434 24.17 17.8467C23.8834 17.5567 23.9167 17.1401 24.26 16.7901C24.6267 16.4167 25.01 16.0567 25.3667 15.6734C25.76 15.2501 25.7534 14.6434 25.3734 14.2567C24.9767 13.8534 24.3734 13.8501 23.9334 14.2567C23.7334 14.4434 23.5467 14.6434 23.35 14.8334C22.9834 15.1901 22.56 15.2234 22.27 14.9201C21.9834 14.6234 22.02 14.2234 22.3734 13.8667C22.78 13.4534 23.2067 13.0534 23.5967 12.6267C23.9867 12.2001 23.9467 11.5934 23.5434 11.2167C23.15 10.8501 22.5667 10.8567 22.15 11.2401C21.9567 11.4167 21.78 11.6101 21.5934 11.7934C21.2034 12.1801 20.7934 12.2301 20.4867 11.9334C20.18 11.6301 20.2234 11.2134 20.6067 10.8301C20.9834 10.4501 21.3634 10.0734 21.7434 9.69672C21.9834 9.45672 22.1034 9.17005 22.0534 8.83005C21.9934 8.42672 21.77 8.14005 21.3767 8.00339C20.9667 7.86339 20.61 7.97672 20.3134 8.27005C19.7367 8.83672 19.1734 9.41672 18.5934 9.98005C18.4334 10.1367 18.4 10.2467 18.5 10.4701C19.0934 11.7634 18.43 13.2734 17.09 13.7134C16.8534 13.7901 16.6034 13.8167 16.3467 13.8701C16.3334 13.9267 16.3134 13.9901 16.3034 14.0567C16.1134 15.3267 15.41 16.0401 14.13 16.2201C13.9267 16.2501 13.9067 16.3534 13.89 16.5134C13.7667 17.6434 12.9367 18.4767 11.8067 18.6201C11.71 18.6334 11.6134 18.6567 11.54 18.6701C11.4867 18.9367 11.4567 19.1767 11.3867 19.4001C10.95 20.7567 9.43669 21.4101 8.11668 20.8301C8.01335 20.7867 7.82668 20.7601 7.76669 20.8167C7.05668 21.5034 6.36002 22.2101 5.71002 22.8634L5.70335 22.8534ZM31.4067 23.0634C31.1467 23.2201 30.8834 23.3201 30.7 23.5001C28.2834 25.8967 25.8767 28.3034 23.4734 30.7101C23.0134 31.1701 23.0134 31.6867 23.4667 32.1501C23.81 32.5001 24.1567 32.8434 24.5067 33.1867C25.0334 33.7034 25.5134 33.6967 26.0434 33.1701C26.5534 32.6667 27.0567 32.1567 27.5667 31.6501C29.4434 29.7767 31.32 27.9034 33.1934 26.0267C33.6867 25.5301 33.69 25.0301 33.2034 24.5367C32.8434 24.1734 32.4934 23.7967 32.11 23.4601C31.9267 23.2967 31.6734 23.2101 31.41 23.0634H31.4067ZM13.8967 14.9167C14.3467 14.8301 14.66 14.6501 14.83 14.2734C15.0067 13.8734 14.9667 13.4767 14.6567 13.1634C13.82 12.3101 12.9767 11.4634 12.1167 10.6301C11.7 10.2267 11.0934 10.2534 10.7034 10.6467C10.3134 11.0367 10.3 11.6401 10.71 12.0601C11.53 12.9001 12.3567 13.7301 13.2034 14.5434C13.3867 14.7201 13.6634 14.7967 13.8967 14.9201V14.9167ZM16.29 12.5134C16.81 12.4467 17.21 12.1234 17.3067 11.6567C17.4034 11.1834 17.2667 10.9567 16.8334 10.7567C15.45 10.1134 14.4234 9.12005 13.8334 7.69005C13.7834 7.56672 13.64 7.43672 13.5134 7.39339C13.0734 7.23672 12.6 7.43005 12.3634 7.82339C12.12 8.22672 12.17 8.71339 12.5267 9.07339C13.5434 10.1001 14.56 11.1234 15.5967 12.1301C15.78 12.3067 16.0534 12.3867 16.2867 12.5134H16.29ZM11.3634 17.2534C11.9534 17.2334 12.27 17.0401 12.4367 16.6467C12.6067 16.2434 12.54 15.8601 12.2334 15.5434C11.62 14.9167 11 14.2967 10.3734 13.6834C9.92669 13.2434 9.31668 13.2367 8.90668 13.6434C8.50002 14.0501 8.51002 14.6601 8.94668 15.1101C9.54335 15.7201 10.14 16.3334 10.7634 16.9134C10.9567 17.0967 11.2367 17.1867 11.36 17.2534H11.3634ZM10.1267 18.5801C10.1 18.4901 10.0967 18.3034 10 18.1967C9.64335 17.8067 9.29002 17.3967 8.87002 17.0834C8.49335 16.8034 7.95335 16.9567 7.64669 17.3201C7.35002 17.6701 7.32668 18.2201 7.63002 18.5767C7.89335 18.8867 8.19002 19.1767 8.50002 19.4401C8.81335 19.7034 9.18669 19.7267 9.55669 19.5501C9.92669 19.3701 10.1067 19.0567 10.1267 18.5801ZM17.1267 9.39339C17.7334 8.78672 18.3067 8.21339 18.9034 7.61672C17.6534 7.43005 16.42 7.06339 15.0534 6.98339C15.4534 8.15672 16.2367 8.85339 17.1267 9.39672V9.39339Z" fill="white"/>
<path d="M17.6367 0C18.0034 0.183333 18.1367 0.476667 18.13 0.886667C18.11 1.80667 18.1267 2.73 18.1234 3.65333C18.1234 4.15 17.85 4.45 17.4267 4.44333C17.0234 4.43667 16.7534 4.13333 16.75 3.66333C16.7467 2.75333 16.7667 1.84333 16.74 0.933333C16.73 0.51 16.8634 0.206667 17.2267 0H17.6367Z" fill="white"/>
<path d="M5.50342 0.85662C5.66342 0.64662 5.77675 0.419953 5.95675 0.283286C6.18008 0.11662 6.46008 0.153286 6.68675 0.333286C6.85342 0.46662 7.00342 0.62662 7.15675 0.779953C7.83342 1.45329 8.51008 2.12662 9.18342 2.80329C9.53342 3.15662 9.56342 3.56329 9.27342 3.85995C8.98675 4.15329 8.56342 4.12662 8.22008 3.78662C7.43008 3.00329 6.63675 2.21995 5.86008 1.42329C5.72675 1.28662 5.65008 1.09329 5.50675 0.85662H5.50342Z" fill="white"/>
<path d="M25.3232 3.4167C25.4599 3.1767 25.5232 2.9867 25.6499 2.86003C26.4566 2.0367 27.2699 1.2267 28.0899 0.420029C28.3999 0.113362 28.8232 0.120029 29.0932 0.403362C29.3532 0.676696 29.3499 1.0867 29.0599 1.38336C28.2432 2.21003 27.4199 3.03003 26.5966 3.85003C26.3732 4.07336 26.0766 4.15003 25.8166 3.9867C25.6199 3.86336 25.4966 3.62336 25.3232 3.4167Z" fill="white"/>
<path d="M4.77996 30.7767C4.40329 30.7767 4.10662 30.4834 4.09996 30.1101C4.09329 29.7334 4.41329 29.4067 4.78996 29.4101C5.16662 29.4134 5.47996 29.7434 5.46996 30.1234C5.45996 30.4967 5.15996 30.7834 4.77996 30.7801V30.7767Z" fill="white"/>
<path d="M23.4033 24.07C23.03 24.0633 22.74 23.7666 22.74 23.39C22.74 23.0033 23.0567 22.69 23.44 22.7033C23.8033 22.7133 24.11 23.03 24.11 23.39C24.11 23.77 23.79 24.0766 23.4033 24.07Z" fill="white"/>
</g>
<defs>
<clipPath id="clip0_835_271">
<rect width="35" height="35" fill="white"/>
</clipPath>
</defs>
</svg>
