<svg width="35" height="35" viewBox="0 0 35 35" fill="none" xmlns="http://www.w3.org/2000/svg">
<g clip-path="url(#clip0_799_799)">
<path d="M17.5 35C27.165 35 35 27.165 35 17.5C35 7.83502 27.165 0 17.5 0C7.83502 0 0 7.83502 0 17.5C0 27.165 7.83502 35 17.5 35Z" fill="#27A5C1"/>
<path d="M17.7299 7.5C18.1699 7.61 18.4699 7.91 18.7599 8.22C21.2699 10.88 23.7699 13.53 26.2899 16.18C26.7099 16.62 26.8699 17.12 26.6599 17.7C26.2999 18.64 25.1099 18.86 24.3999 18.11C23.6999 17.38 22.9999 16.64 22.3099 15.9C20.7499 14.25 19.1999 12.61 17.6399 10.96C17.5999 10.92 17.5699 10.87 17.4899 10.77C17.4199 10.87 17.3799 10.95 17.3199 11.01C15.0899 13.37 12.8699 15.72 10.6399 18.08C10.2399 18.51 9.75992 18.68 9.18992 18.5C8.22992 18.21 7.92992 17.03 8.61992 16.28C9.66992 15.15 10.7399 14.04 11.7999 12.92C13.2799 11.36 14.7599 9.8 16.2299 8.24C16.5299 7.92 16.8299 7.63 17.2599 7.52H17.7299V7.5Z" fill="black"/>
<path d="M9.36993 27.5C9.36993 27.5 9.32993 27.47 9.29993 27.47C8.22993 27.18 7.88993 25.99 8.63993 25.18C9.40993 24.35 10.1999 23.53 10.9699 22.71C12.7799 20.79 14.5999 18.88 16.3999 16.96C16.7899 16.54 17.2499 16.35 17.8199 16.48C18.1299 16.55 18.3599 16.75 18.5799 16.97C19.8099 18.28 21.0499 19.58 22.2799 20.89C23.6199 22.3 24.9499 23.72 26.2899 25.13C26.6499 25.51 26.8199 25.95 26.6899 26.47C26.5699 26.95 26.2599 27.27 25.7799 27.43C25.7199 27.45 25.6599 27.47 25.5999 27.49H25.1699C24.8499 27.4 24.5699 27.25 24.3399 27.01C22.2999 24.85 20.2499 22.69 18.2099 20.53C17.9699 20.28 17.7299 20.02 17.4699 19.75C17.4199 19.81 17.3699 19.86 17.3299 19.9C15.1399 22.21 12.9499 24.52 10.7699 26.84C10.4899 27.14 10.1899 27.4 9.77993 27.49H9.34993L9.36993 27.5Z" fill="black"/>
</g>
<defs>
<clipPath id="clip0_799_799">
<rect width="35" height="35" fill="white"/>
</clipPath>
</defs>
</svg>
