<svg width="35" height="35" viewBox="0 0 35 35" fill="none" xmlns="http://www.w3.org/2000/svg">
<g clip-path="url(#clip0_1005_578)">
<path d="M17.5 35C27.165 35 35 27.165 35 17.5C35 7.83502 27.165 0 17.5 0C7.83502 0 0 7.83502 0 17.5C0 27.165 7.83502 35 17.5 35Z" fill="#039BE5"/>
<path d="M8.01004 17.1201L24.88 10.6101C25.66 10.3301 26.35 10.8001 26.09 11.9901L23.22 25.5201C23.01 26.4801 22.44 26.7101 21.64 26.2601L17.26 23.0401L15.15 25.0701C14.92 25.3001 14.72 25.5001 14.27 25.5001L14.58 21.0501L22.69 13.7201C23.04 13.4101 22.61 13.2301 22.15 13.5401L12.13 19.8501L7.81004 18.5001C6.87004 18.2001 6.85004 17.5601 8.01004 17.1101V17.1201Z" fill="white"/>
</g>
<defs>
<clipPath id="clip0_1005_578">
<rect width="35" height="35" fill="white"/>
</clipPath>
</defs>
</svg>
