<svg width="45" height="45" viewBox="0 0 45 45" fill="none" xmlns="http://www.w3.org/2000/svg">
<path d="M45 5.52997V6.6733C44.9533 6.83997 44.9 7.0033 44.8667 7.16997C42.68 17.4266 40.4933 27.6866 38.3 37.94C38.15 38.6366 37.99 39.3466 37.7133 40C37.2433 41.1133 36.3367 41.4866 35.1967 41.1C34.8 40.9666 34.41 40.77 34.0733 40.5233C30.8767 38.2 27.69 35.8566 24.5 33.5233C23.8933 33.08 24.0867 33.0633 23.5233 33.6C21.92 35.1233 20.32 36.6533 18.7233 38.1833C18.23 38.6566 17.67 38.9433 16.9233 38.91C16.9667 38.2566 17.0067 37.6333 17.0533 37.01C17.2467 34.28 17.44 31.5466 17.65 28.8166C17.6667 28.6133 17.7867 28.3666 17.9367 28.23C23.9867 22.78 30.05 17.34 36.1067 11.8966C36.4 11.6333 36.7033 11.3733 36.97 11.0833C37.0633 10.9833 37.13 10.7666 37.0833 10.66C37.0367 10.5533 36.81 10.4366 36.7 10.4633C36.2833 10.57 35.84 10.6666 35.48 10.8866C32.7867 12.5433 30.1133 14.23 27.4333 15.9066C22.3467 19.09 17.26 22.2733 12.17 25.45C12.0167 25.5466 11.78 25.6266 11.6233 25.58C8.22667 24.54 4.83667 23.48 1.44333 22.42C0.84 22.2333 0.33 21.91 0 21.3533C0 21.1766 0 21.0033 0 20.8266C0.183333 20.5833 0.32 20.2666 0.56 20.1133C1.13333 19.7466 1.73 19.3866 2.36333 19.1433C11.9067 15.47 21.46 11.82 31.01 8.1633C34.6533 6.76664 38.2933 5.36997 41.9367 3.97664C43.3533 3.4333 44.6667 3.86997 44.9567 5.45997C44.96 5.48664 44.9833 5.50997 45 5.53664V5.52997Z" fill="#3EB5F1"/>
</svg>
