<svg width="150" height="150" viewBox="0 0 150 150" fill="none" xmlns="http://www.w3.org/2000/svg">
<g clip-path="url(#clip0_958_405)">
<path d="M130 0H20C8.9543 0 0 8.9543 0 20V130C0 141.046 8.9543 150 20 150H130C141.046 150 150 141.046 150 130V20C150 8.9543 141.046 0 130 0Z" fill="url(#paint0_linear_958_405)"/>
<path d="M30.65 30.65H119.35V119.35H30.65V30.65Z" fill="#57A4FF"/>
<path d="M62.96 58.47H96.02V91.53H62.96V58.47ZM108.92 49.32H116.44V56.84H108.92V49.32ZM108.92 61.97H116.44V69.49H108.92V61.97Z" fill="#78B9EB"/>
<path d="M58.47 58.47H91.53V91.53H58.47V58.47Z" fill="#FFB655"/>
<path d="M119.35 36.55H130.81V42.69H119.35V36.55ZM119.35 50.7H130.81V56.84H119.35V50.7ZM119.35 64.85H130.81V70.99H119.35V64.85ZM119.35 79H130.81V85.14H119.35V79ZM119.35 93.16H130.81V99.3H119.35V93.16ZM119.35 107.31H130.81V113.45H119.35V107.31ZM19.18 36.55H30.64V42.69H19.18V36.55ZM19.18 50.7H30.64V56.84H19.18V50.7ZM19.18 64.85H30.64V70.99H19.18V64.85ZM19.18 79H30.64V85.14H19.18V79ZM19.18 93.16H30.64V99.3H19.18V93.16ZM19.18 107.31H30.64V113.45H19.18V107.31Z" fill="#FFE477"/>
<path d="M107.31 119.35H113.45V130.81H107.31V119.35ZM93.16 119.35H99.3V130.81H93.16V119.35ZM79 119.35H85.14V130.81H79V119.35ZM64.85 119.35H70.99V130.81H64.85V119.35ZM50.7 119.35H56.84V130.81H50.7V119.35ZM36.55 119.35H42.69V130.81H36.55V119.35ZM107.31 19.18H113.45V30.64H107.31V19.18ZM93.16 19.18H99.3V30.64H93.16V19.18ZM79 19.18H85.14V30.64H79V19.18ZM64.85 19.18H70.99V30.64H64.85V19.18ZM50.7 19.18H56.84V30.64H50.7V19.18ZM36.55 19.18H42.69V30.64H36.55V19.18Z" fill="#FFD422"/>
<path d="M104.42 49.32H111.94V56.84H104.42V49.32ZM104.42 61.97H111.94V69.49H104.42V61.97Z" fill="#FF3F62"/>
<path d="M119.35 36.55H130.81V42.69H119.35V36.55ZM119.35 50.7H130.81V56.84H119.35V50.7ZM119.35 64.85H130.81V70.99H119.35V64.85ZM119.35 79H130.81V85.14H119.35V79ZM119.35 93.16H130.81V99.3H119.35V93.16ZM119.35 107.31H130.81V113.45H119.35V107.31Z" fill="#FFE477"/>
<path d="M107.31 119.35H113.45V130.81H107.31V119.35ZM93.16 119.35H99.3V130.81H93.16V119.35ZM79 119.35H85.14V130.81H79V119.35ZM64.85 119.35H70.99V130.81H64.85V119.35ZM50.7 119.35H56.84V130.81H50.7V119.35ZM36.55 119.35H42.69V130.81H36.55V119.35ZM107.31 19.18H113.45V30.64H107.31V19.18ZM93.16 19.18H99.3V30.64H93.16V19.18ZM79 19.18H85.14V30.64H79V19.18ZM64.85 19.18H70.99V30.64H64.85V19.18ZM50.7 19.18H56.84V30.64H50.7V19.18ZM36.55 19.18H42.69V30.64H36.55V19.18Z" fill="#FFD422"/>
<path d="M30.65 30.65H44.13V119.35H30.65V30.65Z" fill="#006DF0"/>
<path d="M58.47 58.47H62.96V91.53H58.47V58.47Z" fill="#FF9811"/>
<path d="M19.18 64.85H23.67V70.99H19.18V64.85ZM19.18 50.7H23.67V56.84H19.18V50.7ZM19.18 36.55H23.67V42.69H19.18V36.55ZM19.18 107.31H23.67V113.45H19.18V107.31ZM19.18 79H23.67V85.14H19.18V79ZM19.18 93.16H23.67V99.3H19.18V93.16ZM119.35 64.85H123.84V70.99H119.35V64.85ZM119.35 50.7H123.84V56.84H119.35V50.7ZM119.35 36.55H123.84V42.69H119.35V36.55ZM119.35 107.31H123.84V113.45H119.35V107.31ZM119.35 79H123.84V85.14H119.35V79ZM119.35 93.16H123.84V99.3H119.35V93.16Z" fill="#FFD422"/>
<path d="M104.42 49.32H108.91V56.84H104.42V49.32ZM104.42 61.97H108.91V69.49H104.42V61.97Z" fill="#C70024"/>
<path d="M108.67 108.69H112.04V112.06H108.67V108.69ZM103.06 108.69H106.43V112.06H103.06V108.69ZM91.83 108.69H95.2V112.06H91.83V108.69ZM97.44 108.69H100.81V112.06H97.44V108.69ZM108.67 102.89H112.04V106.26H108.67V102.89ZM103.06 102.89H106.43V106.26H103.06V102.89ZM91.83 102.89H95.2V106.26H91.83V102.89ZM97.44 102.89H100.81V106.26H97.44V102.89ZM68.71 62.42H72.08V65.79H68.71V62.42ZM74.33 62.42H77.7V65.79H74.33V62.42ZM63.1 62.42H66.47V65.79H63.1V62.42Z" fill="#1D1D1F"/>
<path d="M132.5 44.38V34.87H121.04V28.96H115.13V17.5H105.62V28.96H100.98V17.5H91.47V28.96H86.83V17.5H77.32V28.96H72.68V17.5H63.17V28.98H58.53V17.5H49.02V28.97H44.38V17.5H34.87V28.97H28.96V34.87H17.5V44.38H28.96V49.02H17.5V58.53H28.96V63.17H17.5V72.68H28.96V77.32H17.5V86.83H28.96V91.47H17.5V100.98H28.96V105.62H17.5V115.13H28.96V121.02H34.87V132.5H44.38V121.03H49.02V132.5H58.53V121.03H63.17V132.5H72.68V121.03H77.32V132.5H86.83V121.03H91.47V132.5H100.98V121.03H105.62V132.5H115.13V121.04H121.04V115.14H132.5V105.63H121.04V105.05H117.67V117.68H32.33V32.33H117.67V101.67H121.04V100.98H132.5V91.47H121.04V86.83H132.5V77.32H121.04V72.68H132.5V63.17H121.04V58.53H132.5V49.02H121.04V44.38H132.5ZM121.04 38.24H129.13V41.01H121.04V38.24ZM108.99 20.87H111.76V28.96H108.99V20.87ZM94.84 20.87H97.61V28.96H94.84V20.87ZM80.69 20.87H83.46V28.96H80.69V20.87ZM52.39 20.87H55.16V28.96H52.39V20.87ZM38.24 20.87H41.01V28.96H38.24V20.87ZM28.96 41.01H20.87V38.24H28.96V41.01ZM28.96 55.16H20.87V52.39H28.96V55.16ZM28.96 69.31H20.87V66.54H28.96V69.31ZM28.96 97.61H20.87V94.84H28.96V97.61ZM28.96 111.76H20.87V108.99H28.96V111.76ZM41.01 129.13H38.24V121.04H41.01V129.13ZM55.16 129.13H52.39V121.04H55.16V129.13ZM69.31 129.13H66.54V121.04H69.31V129.13ZM83.46 129.13H80.69V121.04H83.46V129.13ZM97.61 129.13H94.84V121.04H97.61V129.13ZM111.76 129.13H108.99V121.04H111.76V129.13ZM121.04 108.99H129.13V111.76H121.04V108.99ZM28.96 83.46H20.87V80.69H28.96V83.46ZM66.54 20.87H69.31V28.96H66.54V20.87ZM121.04 94.84H129.13V97.61H121.04V94.84ZM121.04 80.69H129.13V83.46H121.04V80.69ZM121.04 66.54H129.13V69.31H121.04V66.54ZM121.04 52.39H129.13V55.16H121.04V52.39Z" fill="#1D1D1F"/>
<path d="M97.25 63.66V60.29H93.22V56.79H89.72V52.77H86.35V56.79H83.21V52.77H79.84V56.79H76.7V52.77H73.33V56.79H70.19V52.77H66.82V56.79H63.68V52.77H60.31V56.79H56.81V60.29H52.79V63.65H56.81V66.8H52.79V70.16H56.81V73.31H52.79V76.67H56.81V79.82H52.79V83.18H56.81V86.33H52.79V89.69H56.81V93.19H60.31V97.21H63.68V93.19H66.82V97.21H70.19V93.19H73.33V97.21H76.7V93.19H79.84V97.21H83.21V93.19H86.35V97.21H89.72V93.19H93.22V89.68H97.25V86.32H93.22V83.17H97.25V79.81H93.22V76.66H97.25V73.3H93.22V70.15H97.25V66.79H93.22V63.64H97.25V63.66ZM89.84 89.84H60.15V60.15H89.84V89.84Z" fill="#1D1D1F"/>
<path d="M83.46 75.92H86.83V85.35H83.46V75.92ZM83.46 64.69H86.83V68.06H83.46V64.69ZM83.46 70.3H86.83V73.67H83.46V70.3Z" fill="white"/>
<path d="M63.38 87.02H71V83.66H63.39V87.02H63.38Z" fill="#1D1D1F"/>
<path d="M76.31 37.94H79.68V41.31H76.31V37.94ZM70.7 37.94H74.07V41.31H70.7V37.94ZM81.93 37.94H112.36V41.31H81.93V37.94Z" fill="white"/>
<path d="M50.53 66.8H43.56V52.09H34.99V55.46H40.19V70.16H50.53V66.8Z" fill="#1D1D1F"/>
<path d="M50.53 60.3H48.83V37.94H34.98V41.31H45.46V63.65H50.52V60.3H50.53ZM37 73.32V80.4H34.98V83.77H40.37V76.69H50.52V73.33L37.01 73.32H37Z" fill="#1D1D1F"/>
<path d="M50.53 79.84H41.53V94.54H34.98V97.9L44.9 97.91V83.2H50.52V79.84H50.53Z" fill="#1D1D1F"/>
<path d="M34.98 108.69V112.06H49.36V89.71H50.52V86.34H45.99V108.69H34.98Z" fill="#1D1D1F"/>
<path d="M59.2 108.69H71.93V112.06H59.2V108.69ZM79.79 108.69H83.16V112.06H79.79V108.69ZM74.18 108.69H77.55V112.06H74.18V108.69Z" fill="white"/>
<path d="M113.63 47.64H102.74V58.53H113.63V47.64ZM110.26 55.16H106.1V51H110.26V55.16ZM113.63 60.29H102.74V71.18H113.63V60.29ZM110.26 67.81H106.1V63.65H110.26V67.81ZM112.06 79.96H108.69V94.11H112.06V79.96Z" fill="#1D1D1F"/>
</g>
<defs>
<linearGradient id="paint0_linear_958_405" x1="75" y1="0" x2="75" y2="150" gradientUnits="userSpaceOnUse">
<stop stop-color="#E1860F"/>
<stop offset="0.5" stop-color="#BE0A0A"/>
</linearGradient>
<clipPath id="clip0_958_405">
<rect width="150" height="150" fill="white"/>
</clipPath>
</defs>
</svg>
