<svg width="35" height="35" viewBox="0 0 35 35" fill="none" xmlns="http://www.w3.org/2000/svg">
<g clip-path="url(#clip0_809_48)">
<path d="M17.5 35C27.165 35 35 27.165 35 17.5C35 7.83502 27.165 0 17.5 0C7.83502 0 0 7.83502 0 17.5C0 27.165 7.83502 35 17.5 35Z" fill="#C9C8C8"/>
<path d="M17.5 32.5C25.7843 32.5 32.5 25.7843 32.5 17.5C32.5 9.21573 25.7843 2.5 17.5 2.5C9.21573 2.5 2.5 9.21573 2.5 17.5C2.5 25.7843 9.21573 32.5 17.5 32.5Z" fill="#AFAFAF"/>
<path d="M17.66 27.5H17.35C17.01 27.34 16.9 27.08 16.92 26.71C16.94 26.25 16.92 25.79 16.92 25.32C16.92 25.26 16.92 25.21 16.91 25.16H15.75C15.75 25.68 15.73 26.2 15.75 26.71C15.76 27.07 15.65 27.34 15.32 27.5H15.01C14.67 27.34 14.56 27.08 14.58 26.71C14.6 26.25 14.58 25.79 14.58 25.32C14.58 25.26 14.58 25.21 14.57 25.16H13.41C13.41 25.68 13.39 26.2 13.41 26.71C13.42 27.07 13.31 27.34 12.98 27.5H12.67C12.33 27.34 12.22 27.08 12.24 26.71C12.26 26.25 12.24 25.79 12.24 25.32C12.24 25.26 12.24 25.21 12.23 25.15C11.91 25.15 11.61 25.15 11.31 25.15C10.43 25.15 9.86001 24.57 9.86001 23.7C9.86001 23.4 9.86001 23.09 9.86001 22.77C9.33001 22.77 8.81001 22.75 8.30001 22.77C7.94001 22.78 7.67001 22.67 7.51001 22.34V22.03C7.67001 21.69 7.93001 21.58 8.30001 21.6C8.75001 21.62 9.21001 21.6 9.67001 21.6H9.85001V20.43C9.33001 20.43 8.81001 20.41 8.30001 20.43C7.94001 20.44 7.67001 20.33 7.51001 20V19.69C7.67001 19.35 7.93001 19.24 8.30001 19.26C8.75001 19.28 9.21001 19.26 9.67001 19.26H9.85001V18.09C9.33001 18.09 8.81001 18.07 8.30001 18.09C7.94001 18.1 7.67001 17.99 7.51001 17.66V17.35C7.67001 17.01 7.93001 16.9 8.30001 16.92C8.75001 16.94 9.21001 16.92 9.67001 16.92C9.73001 16.92 9.79001 16.92 9.85001 16.92V15.75C9.33001 15.75 8.81001 15.73 8.30001 15.75C7.94001 15.76 7.67001 15.65 7.51001 15.32V15.01C7.67001 14.67 7.93001 14.56 8.30001 14.58C8.75001 14.6 9.21001 14.58 9.67001 14.58C9.73001 14.58 9.79001 14.58 9.85001 14.58V13.41C9.33001 13.41 8.81001 13.39 8.30001 13.41C7.94001 13.42 7.67001 13.31 7.51001 12.98V12.67C7.67001 12.33 7.93001 12.22 8.30001 12.24C8.75001 12.26 9.21001 12.24 9.67001 12.24C9.73001 12.24 9.79001 12.24 9.86001 12.24C9.86001 11.91 9.86001 11.61 9.86001 11.31C9.86001 10.43 10.44 9.86001 11.31 9.86001C11.61 9.86001 11.92 9.86001 12.24 9.86001C12.24 9.33001 12.26 8.81001 12.24 8.30001C12.23 7.94001 12.34 7.67001 12.67 7.51001H12.98C13.32 7.67001 13.43 7.93001 13.41 8.30001C13.39 8.76001 13.41 9.22001 13.41 9.69001C13.41 9.75001 13.41 9.80001 13.42 9.85001H14.58C14.58 9.33001 14.6 8.81001 14.58 8.30001C14.57 7.94001 14.68 7.67001 15.01 7.51001H15.32C15.66 7.67001 15.77 7.93001 15.75 8.30001C15.73 8.76001 15.75 9.22001 15.75 9.69001C15.75 9.75001 15.75 9.80001 15.76 9.85001H16.92C16.92 9.33001 16.94 8.81001 16.92 8.30001C16.91 7.94001 17.02 7.67001 17.35 7.51001H17.66C18 7.67001 18.11 7.93001 18.09 8.30001C18.07 8.76001 18.09 9.22001 18.09 9.69001C18.09 9.75001 18.09 9.80001 18.1 9.85001H19.26C19.26 9.33001 19.28 8.81001 19.26 8.30001C19.25 7.94001 19.36 7.67001 19.69 7.51001H20C20.34 7.67001 20.45 7.93001 20.43 8.30001C20.41 8.76001 20.43 9.22001 20.43 9.69001C20.43 9.75001 20.43 9.80001 20.44 9.85001H21.6C21.6 9.33001 21.62 8.81001 21.6 8.30001C21.59 7.94001 21.7 7.67001 22.03 7.51001H22.34C22.68 7.67001 22.79 7.93001 22.77 8.30001C22.75 8.76001 22.77 9.22001 22.77 9.69001C22.77 9.75001 22.77 9.80001 22.78 9.86001C23.1 9.86001 23.4 9.86001 23.7 9.86001C24.58 9.86001 25.15 10.44 25.15 11.31C25.15 11.61 25.15 11.92 25.15 12.24C25.68 12.24 26.2 12.26 26.71 12.24C27.07 12.23 27.34 12.34 27.5 12.67V12.98C27.34 13.32 27.08 13.43 26.71 13.41C26.25 13.39 25.79 13.41 25.32 13.41C25.26 13.41 25.21 13.41 25.16 13.42V14.58C25.68 14.58 26.2 14.6 26.71 14.58C27.07 14.57 27.34 14.68 27.5 15.01V15.32C27.34 15.66 27.08 15.77 26.71 15.75C26.25 15.73 25.79 15.75 25.32 15.75C25.26 15.75 25.21 15.75 25.16 15.76V16.92C25.68 16.92 26.2 16.94 26.71 16.92C27.07 16.91 27.34 17.02 27.5 17.35V17.66C27.34 18 27.08 18.11 26.71 18.09C26.25 18.07 25.79 18.09 25.32 18.09C25.26 18.09 25.21 18.09 25.16 18.1V19.26C25.68 19.26 26.2 19.28 26.71 19.26C27.07 19.25 27.34 19.36 27.5 19.69V20C27.34 20.34 27.08 20.45 26.71 20.43C26.25 20.41 25.79 20.43 25.32 20.43C25.26 20.43 25.21 20.43 25.16 20.44V21.6C25.68 21.6 26.2 21.62 26.71 21.6C27.07 21.59 27.34 21.7 27.5 22.03V22.34C27.34 22.68 27.08 22.79 26.71 22.77C26.25 22.75 25.79 22.77 25.32 22.77C25.26 22.77 25.21 22.77 25.15 22.78C25.15 23.1 25.15 23.4 25.15 23.7C25.15 24.58 24.57 25.15 23.7 25.15C23.4 25.15 23.09 25.15 22.77 25.15C22.77 25.68 22.75 26.2 22.77 26.71C22.78 27.07 22.67 27.34 22.34 27.5H22.03C21.69 27.34 21.58 27.08 21.6 26.71C21.62 26.25 21.6 25.79 21.6 25.32C21.6 25.26 21.6 25.21 21.59 25.16H20.43C20.43 25.68 20.41 26.2 20.43 26.71C20.44 27.07 20.33 27.34 20 27.5H19.69C19.35 27.34 19.24 27.08 19.26 26.71C19.28 26.25 19.26 25.79 19.26 25.32C19.26 25.26 19.26 25.21 19.25 25.16H18.09C18.09 25.68 18.07 26.2 18.09 26.71C18.1 27.07 17.99 27.34 17.66 27.5ZM12.19 17.48C12.19 19.02 12.19 20.56 12.19 22.11C12.19 22.6 12.41 22.82 12.89 22.82C15.97 22.82 19.05 22.82 22.12 22.82C22.59 22.82 22.81 22.6 22.81 22.13C22.81 19.05 22.81 15.97 22.81 12.9C22.81 12.43 22.59 12.2 22.12 12.2C19.04 12.2 15.96 12.2 12.89 12.2C12.41 12.2 12.19 12.42 12.19 12.9C12.19 14.43 12.19 15.96 12.19 17.49V17.48Z" fill="#C9C8C8"/>
<path d="M21.6301 21.63H13.3701V13.37H21.6301V21.63Z" fill="#C9C8C8"/>
</g>
<defs>
<clipPath id="clip0_809_48">
<rect width="35" height="35" fill="white"/>
</clipPath>
</defs>
</svg>
