<svg width="13" height="13" viewBox="0 0 13 13" fill="none" xmlns="http://www.w3.org/2000/svg">
<path d="M9.1901 10.6799H8.8601C6.7401 10.6799 4.6301 10.6799 2.5101 10.6799C2.3601 10.6799 2.2201 10.6799 2.0701 10.7099C1.6701 10.7799 1.3901 11.0699 1.3101 11.4699C1.1701 12.2199 1.6001 12.7599 2.3601 12.7599C5.4501 12.7599 8.5501 12.7599 11.6401 12.7599C12.3401 12.7599 12.7401 12.3599 12.7401 11.6599C12.7401 8.60992 12.7401 5.54992 12.7401 2.49992C12.7401 2.41992 12.7401 2.33992 12.7401 2.25992C12.7001 1.73992 12.3501 1.38992 11.8101 1.32992C11.3101 1.26992 10.8501 1.53992 10.7201 1.99992C10.6701 2.16992 10.6601 2.34992 10.6601 2.52992C10.6601 4.64992 10.6601 6.76992 10.6601 8.88992C10.6601 8.97992 10.6601 9.06992 10.6601 9.15992C10.6401 9.15992 10.6101 9.17992 10.5901 9.18992C10.5301 9.11992 10.4801 9.04992 10.4201 8.98992C8.1801 6.74992 5.9301 4.50992 3.6901 2.26992C3.1401 1.71992 2.6001 1.17992 2.0501 0.629921C1.7801 0.359921 1.4601 0.219921 1.0801 0.319921C0.6801 0.419921 0.4101 0.679921 0.3001 1.07992C0.1801 1.48992 0.3301 1.81992 0.6201 2.10992C3.4101 4.88992 6.1901 7.66992 8.9801 10.4499C9.0401 10.5099 9.1001 10.5799 9.2101 10.6899L9.1901 10.6799Z" fill="white"/>
<path d="M9.19008 10.68C9.08008 10.57 9.03008 10.5 8.96008 10.44C6.17008 7.65996 3.39008 4.87996 0.60008 2.09996C0.31008 1.80996 0.160081 1.47996 0.280081 1.06996C0.390081 0.669956 0.66008 0.409956 1.06008 0.309956C1.44008 0.219956 1.76008 0.349956 2.03008 0.619956C2.58008 1.16996 3.12008 1.70996 3.67008 2.25996C5.91008 4.49996 8.16008 6.73996 10.4001 8.97996C10.4601 9.03996 10.5101 9.11996 10.5701 9.17996C10.5901 9.17996 10.6201 9.15996 10.6401 9.14996C10.6401 9.05996 10.6401 8.96996 10.6401 8.87996C10.6401 6.75996 10.6401 4.63996 10.6401 2.51996C10.6401 2.33996 10.6501 2.15996 10.7001 1.98996C10.8301 1.52996 11.2901 1.25996 11.7901 1.31996C12.3301 1.37996 12.6801 1.71996 12.7201 2.24996C12.7201 2.32996 12.7201 2.40996 12.7201 2.48996C12.7201 5.53996 12.7201 8.59996 12.7201 11.65C12.7201 12.36 12.3301 12.75 11.6201 12.75C8.53008 12.75 5.43008 12.75 2.34008 12.75C1.58008 12.75 1.14008 12.21 1.29008 11.46C1.37008 11.06 1.65008 10.77 2.05008 10.7C2.19008 10.67 2.34008 10.67 2.49008 10.67C4.61008 10.67 6.72008 10.67 8.84008 10.67H9.17008L9.19008 10.68Z" fill="white"/>
</svg>
