<svg width="35" height="35" viewBox="0 0 35 35" fill="none" xmlns="http://www.w3.org/2000/svg">
<g clip-path="url(#clip0_777_1109)">
<path d="M17.57 0C18.14 0.17 18.56 0.56 18.97 0.98C20.85 2.88 22.74 4.77 24.65 6.66C25.15 7.16 25.38 7.71 25.38 8.42C25.36 12.21 25.38 16 25.38 19.8C25.38 19.93 25.38 20.07 25.38 20.2C28.83 19.13 31.72 19.85 33.82 22.85C35.4 25.12 35.37 28.23 33.76 30.46C31.65 33.38 28.8 34.08 25.43 33.03C25.36 33.3 25.31 33.59 25.2 33.86C24.94 34.48 24.41 34.79 23.8 35.01H1.64C0.419996 34.6 0.0399961 33.73 0.0499961 32.49C0.0799961 23.17 0.0699961 13.84 0.0699961 4.52C0.0699961 3.67 0.0699961 2.81 0.0699961 1.96C0.0799961 1.1 0.579996 0.41 1.37 0.12C1.46 0.08 1.55 0.04 1.64 0C6.95 0 12.26 0 17.57 0ZM17.02 1.37C16.87 1.37 16.76 1.37 16.64 1.37C11.84 1.37 7.05 1.37 2.25 1.37C1.6 1.37 1.42 1.55 1.42 2.2C1.42 12.41 1.42 22.61 1.42 32.82C1.42 33.45 1.61 33.64 2.23 33.64C9.21 33.64 16.19 33.64 23.18 33.64C23.52 33.64 23.83 33.59 23.97 33.24C24.12 32.86 23.99 32.2 23.74 31.99C20.28 29.19 20.28 24.01 23.74 21.23C23.94 21.07 24.02 20.92 24.02 20.66C24.02 16.7 24.02 12.73 24.02 8.77V8.36C23.85 8.36 23.72 8.36 23.58 8.36C21.93 8.36 20.28 8.36 18.63 8.36C17.81 8.36 17.22 7.9 17.07 7.16C17.04 7 17.04 6.82 17.04 6.65C17.04 4.91 17.04 3.17 17.04 1.37H17.02ZM33.57 26.59C33.57 23.54 31.11 21.07 28.05 21.06C25 21.06 22.5 23.55 22.5 26.6C22.5 29.65 24.98 32.12 28.02 32.12C31.09 32.12 33.56 29.65 33.56 26.58L33.57 26.59ZM18.39 2.44C18.39 2.51 18.39 2.6 18.39 2.68C18.39 3.99 18.39 5.3 18.39 6.61C18.39 6.91 18.47 7 18.78 7C20.09 6.99 21.4 7 22.71 7C22.79 7 22.88 6.99 22.94 6.99C21.43 5.48 19.92 3.97 18.4 2.45L18.39 2.44Z" fill="white"/>
<path d="M1.64 0C1.55 0.04 1.46 0.08 1.37 0.12C0.58 0.41 0.08 1.1 0.06 1.94C0.05 2.79 0.06 3.65 0.06 4.5C0.06 13.82 0.07 23.15 0.04 32.47C0.04 33.71 0.41 34.59 1.63 34.99H0C0 23.33 0 11.67 0 0C0.55 0 1.09 0 1.64 0Z" fill="white"/>
<path d="M33.57 26.59C33.57 29.66 31.1 32.13 28.03 32.13C24.98 32.13 22.51 29.66 22.51 26.61C22.51 23.56 25.01 21.06 28.06 21.07C31.11 21.07 33.57 23.55 33.58 26.6L33.57 26.59ZM28.72 25.95C28.72 25.03 28.72 24.17 28.72 23.31C28.72 22.86 28.44 22.57 28.05 22.57C27.68 22.57 27.37 22.86 27.37 23.27C27.36 24.38 27.36 25.5 27.37 26.61C27.37 27 27.6 27.28 27.96 27.29C28.94 27.32 29.92 27.32 30.89 27.29C31.3 27.28 31.54 26.86 31.44 26.47C31.36 26.16 31.1 25.97 30.72 25.97C30.07 25.97 29.43 25.97 28.73 25.97L28.72 25.95Z" fill="#FFD700"/>
<path d="M18.3899 2.44005C19.9099 3.96005 21.4099 5.46005 22.9299 6.98005C22.8699 6.98005 22.7799 6.99005 22.6999 6.99005C21.3899 6.99005 20.0799 6.99005 18.7699 6.99005C18.4699 6.99005 18.3799 6.90005 18.3799 6.60005C18.3899 5.29005 18.3799 3.98005 18.3799 2.67005C18.3799 2.58005 18.3799 2.50005 18.3799 2.43005L18.3899 2.44005Z" fill="#FFD700"/>
<path d="M12.7299 19.07C10.1399 19.07 7.55995 19.07 4.96995 19.07C4.47995 19.07 4.13995 18.75 4.17995 18.34C4.20995 18.03 4.44995 17.77 4.76995 17.72C4.85995 17.71 4.94995 17.72 5.03995 17.72C10.16 17.72 15.29 17.72 20.41 17.72C20.91 17.72 21.2 17.91 21.25 18.29C21.32 18.74 21.02 19.08 20.54 19.09C19.69 19.09 18.83 19.09 17.9799 19.09C16.2299 19.09 14.47 19.09 12.72 19.09L12.7299 19.07Z" fill="white"/>
<path d="M10.9501 13.66C12.9501 13.66 14.9601 13.66 16.9601 13.66C17.1801 13.66 17.4501 13.74 17.6101 13.88C17.9701 14.2 17.8201 14.8 17.3601 14.96C17.2001 15.01 17.0201 15.02 16.8601 15.02C12.9301 15.02 9.00011 15.02 5.07011 15.02C5.01011 15.02 4.96011 15.02 4.90011 15.02C4.44011 15 4.12011 14.72 4.13011 14.33C4.13011 13.93 4.44011 13.66 4.91011 13.66C6.93011 13.66 8.94011 13.66 10.9601 13.66H10.9501Z" fill="white"/>
<path d="M10.7999 21.8C12.7499 21.8 14.6999 21.8 16.6399 21.8C17.0999 21.8 17.3799 22.02 17.4299 22.39C17.4799 22.78 17.2199 23.11 16.8199 23.16C16.7199 23.17 16.6199 23.16 16.5099 23.16C12.7099 23.16 8.89993 23.16 5.09993 23.16C5.00993 23.16 4.91993 23.16 4.82993 23.16C4.45993 23.12 4.18993 22.83 4.17993 22.49C4.17993 22.13 4.45993 21.82 4.84993 21.81C5.45993 21.8 6.07993 21.81 6.69993 21.81C8.06993 21.81 9.42993 21.81 10.7999 21.81V21.8Z" fill="white"/>
<path d="M10.8101 25.9C12.7601 25.9 14.7101 25.9 16.6501 25.9C17.0601 25.9 17.3301 26.08 17.4101 26.4C17.5101 26.78 17.2701 27.17 16.8701 27.25C16.7501 27.27 16.6201 27.27 16.5001 27.27C12.7101 27.27 8.91012 27.27 5.12012 27.27C4.98012 27.27 4.84012 27.27 4.71012 27.24C4.38012 27.16 4.15012 26.86 4.18012 26.54C4.20012 26.2 4.47012 25.92 4.83012 25.91C5.19012 25.89 5.56012 25.91 5.92012 25.91C7.55012 25.91 9.18012 25.91 10.8101 25.91V25.9Z" fill="white"/>
<path d="M9.6201 10.88C8.1301 10.88 6.6401 10.88 5.1401 10.88C5.0301 10.88 4.9101 10.88 4.8001 10.88C4.4801 10.85 4.2301 10.6 4.1901 10.28C4.1501 9.97002 4.3401 9.67002 4.6601 9.57002C4.7801 9.53002 4.9101 9.52002 5.0301 9.52002C8.0901 9.52002 11.1601 9.52002 14.2201 9.52002C14.3001 9.52002 14.3801 9.52002 14.4601 9.52002C14.8401 9.57002 15.0801 9.86002 15.0601 10.22C15.0501 10.58 14.7801 10.85 14.4001 10.87C14.0801 10.88 13.7601 10.87 13.4401 10.87C12.1601 10.87 10.8901 10.87 9.6101 10.87L9.6201 10.88Z" fill="white"/>
<path d="M20.53 13.6701C20.91 13.6701 21.19 13.9701 21.19 14.3501C21.19 14.7201 20.88 15.0301 20.51 15.0301C20.14 15.0301 19.81 14.6901 19.83 14.3201C19.85 13.9501 20.15 13.6601 20.53 13.6701Z" fill="white"/>
<path d="M28.72 25.9501C29.42 25.9501 30.07 25.9501 30.71 25.9501C31.09 25.9501 31.36 26.1501 31.43 26.4501C31.53 26.8401 31.29 27.2601 30.88 27.2701C29.9 27.3101 28.92 27.3001 27.95 27.2701C27.59 27.2701 27.36 26.9801 27.36 26.5901C27.35 25.4801 27.35 24.3601 27.36 23.2501C27.36 22.8301 27.67 22.5401 28.04 22.5501C28.43 22.5501 28.71 22.8501 28.71 23.2901C28.71 24.1501 28.71 25.0201 28.71 25.9301L28.72 25.9501Z" fill="white"/>
</g>
<defs>
<clipPath id="clip0_777_1109">
<rect width="35" height="35" fill="white"/>
</clipPath>
</defs>
</svg>
