<svg width="35" height="35" viewBox="0 0 35 35" fill="none" xmlns="http://www.w3.org/2000/svg">
<g clip-path="url(#clip0_827_1225)">
<path d="M16.4733 0C17.1567 0 17.84 0 18.5233 0C18.9867 0.0566667 19.4467 0.103333 19.9067 0.166667C23.3567 0.653333 26.4067 2.03333 29.02 4.34C32.0967 7.05667 34.02 10.4367 34.7267 14.49C34.84 15.1467 34.9067 15.8133 34.9967 16.4767V18.5267C34.9767 18.6467 34.95 18.7667 34.9333 18.89C34.85 19.52 34.8 20.16 34.6833 20.7833C34.02 24.27 32.4333 27.28 29.94 29.7967C27.3267 32.4367 24.1833 34.1 20.5133 34.73C19.8533 34.8433 19.1867 34.91 18.5233 35H16.4733C16.01 34.9433 15.55 34.8967 15.09 34.8333C11.64 34.3467 8.59 32.9667 5.97667 30.66C2.9 27.9433 0.976667 24.5633 0.27 20.51C0.153333 19.8533 0.09 19.1867 0 18.5267C0 17.8433 0 17.1567 0 16.4733C0.02 16.3533 0.0466667 16.2333 0.0633333 16.11C0.146667 15.48 0.196667 14.84 0.313333 14.2167C0.976667 10.73 2.56333 7.72 5.05667 5.20333C7.67 2.56333 10.8133 0.903333 14.4833 0.27C15.1433 0.156667 15.81 0.09 16.4733 0ZM13.3667 19.22C9.34333 16.3233 9.36667 11.19 11.9333 8.3C14.6467 5.24 19.2233 4.87333 22.24 7.48C23.8633 8.88333 24.7733 10.66 24.8433 12.81C24.93 15.4833 23.8033 17.5933 21.6433 19.21C23.5267 19.93 25.1167 21 26.4333 22.4667C27.7533 23.9367 28.65 25.6367 29.1633 27.57C34.1467 22.0067 34.67 12.3167 27.9033 6.09667C21.3133 0.0400003 10.89 0.903333 5.39667 7.91C-0.0566667 14.87 1.96 23.4733 5.85 27.5367C6.34667 25.62 7.24667 23.9267 8.56667 22.4667C9.88667 21.0067 11.4767 19.9367 13.3667 19.22ZM17.7833 32.95C18.15 32.92 18.8 32.89 19.4433 32.81C22.3633 32.45 24.9567 31.3133 27.24 29.4667C27.32 29.4 27.38 29.2367 27.3633 29.13C26.5667 23.5433 21.38 19.7433 15.8433 20.6867C11.57 21.4133 8.27333 24.8033 7.64667 29.13C7.63 29.24 7.70333 29.4133 7.79333 29.4867C10.6267 31.7667 13.87 32.9033 17.7867 32.95H17.7833ZM17.51 18.4167C20.44 18.4033 22.81 16.03 22.8167 13.1133C22.8233 10.1933 20.41 7.78667 17.4867 7.79333C14.56 7.8 12.1467 10.23 12.18 13.1367C12.2133 16.07 14.5967 18.4333 17.51 18.4167Z" fill="white"/>
</g>
<defs>
<clipPath id="clip0_827_1225">
<rect width="35" height="35" fill="white"/>
</clipPath>
</defs>
</svg>
