<svg width="25" height="25" viewBox="0 0 25 25" fill="none" xmlns="http://www.w3.org/2000/svg">
<g clip-path="url(#clip0_1005_927)">
<path d="M12.5071 25C19.4714 24.9834 25.0119 19.4358 25 12.4858C24.9881 5.53813 19.4643 0.016704 12.5071 3.73433e-05C5.56905 -0.0166293 0 5.54766 0 12.5C0 19.45 5.56905 25.0167 12.5071 25Z" fill="white"/>
<path d="M12.5071 25C5.56905 25.0167 0 19.4477 0 12.5C0 5.54766 5.56905 -0.0166293 12.5071 3.73433e-05C19.4643 0.016704 24.9881 5.53813 25 12.4858C25.0119 19.4334 19.4714 24.9834 12.5071 25ZM11.4143 9.00004C11.4143 9.98099 11.419 10.9619 11.4119 11.9429C11.4095 12.3548 11.5667 12.6953 11.869 12.9453C13.0476 13.9191 14.231 14.8858 15.4262 15.8381C15.969 16.2691 16.7857 15.9977 17.0095 15.3453C17.1643 14.8953 17.0286 14.4643 16.6143 14.1215C15.6881 13.3572 14.7619 12.5929 13.8262 11.8358C13.6524 11.6953 13.5786 11.5548 13.5786 11.3262C13.5905 9.62147 13.5857 7.91432 13.5833 6.20956C13.5833 6.05956 13.5833 5.90718 13.5595 5.75956C13.5 5.36908 13.2833 5.09766 12.9071 4.96432C12.1476 4.69528 11.4238 5.20718 11.4143 6.03337C11.4024 7.02385 11.4119 8.01194 11.4119 9.00242L11.4143 9.00004Z" fill="#565656"/>
<path d="M11.4143 8.99996C11.4143 8.00948 11.4047 7.02139 11.4166 6.03091C11.4262 5.20472 12.1523 4.6952 12.9095 4.96186C13.2857 5.0952 13.5 5.36663 13.5619 5.7571C13.5857 5.90472 13.5857 6.0571 13.5857 6.2071C13.5857 7.91186 13.5928 9.61901 13.5809 11.3238C13.5809 11.5547 13.6547 11.6952 13.8285 11.8333C14.7619 12.5881 15.6904 13.3523 16.6166 14.119C17.0309 14.4619 17.1666 14.8928 17.0119 15.3428C16.7881 15.9976 15.969 16.269 15.4285 15.8357C14.2333 14.8833 13.05 13.9166 11.8714 12.9428C11.569 12.6928 11.4119 12.3523 11.4143 11.9404C11.4214 10.9595 11.4166 9.97853 11.4166 8.99758L11.4143 8.99996Z" fill="white"/>
</g>
<defs>
<clipPath id="clip0_1005_927">
<rect width="25" height="25" fill="white"/>
</clipPath>
</defs>
</svg>
