<svg width="35" height="35" viewBox="0 0 35 35" fill="none" xmlns="http://www.w3.org/2000/svg">
<path d="M17.5 35C27.165 35 35 27.165 35 17.5C35 7.83502 27.165 0 17.5 0C7.83502 0 0 7.83502 0 17.5C0 27.165 7.83502 35 17.5 35Z" fill="url(#paint0_linear_1005_543)"/>
<path d="M24.9201 12.66L8.87006 13.09C8.14006 13.09 7.56006 11.22 7.56006 10.51C7.56006 9.79998 8.15006 9.22998 8.87006 9.22998H23.6001C24.3301 9.22998 24.9101 9.79998 24.9101 10.51V12.66H24.9201Z" fill="#5845A0"/>
<path d="M24.05 9.23999H22.72C23.45 9.23999 24.03 9.80999 24.03 10.52V12.67L25.36 11.81V10.53C25.36 9.81999 24.77 9.24999 24.05 9.24999V9.23999Z" fill="#493887"/>
<path d="M20.7002 10.6699C20.7002 13.1599 19.0802 15.1299 16.5302 15.1299C16.3102 15.1299 16.1002 15.1599 15.9002 15.1299C13.6502 14.8299 11.9202 12.9499 11.9202 10.6699C11.9202 8.38987 13.6502 6.50987 15.9002 6.20987C16.1102 6.17987 16.3202 6.20987 16.5302 6.20987C19.0802 6.20987 20.7002 8.17987 20.7002 10.6699Z" fill="#FFE177"/>
<path d="M16.5301 6.16992C16.3101 6.16992 16.1001 6.17992 15.9001 6.20992C18.1501 6.50992 19.8801 8.38992 19.8801 10.6699C19.8801 12.9499 18.1501 14.8299 15.9001 15.1299C16.1101 15.1599 16.3201 15.1699 16.5301 15.1699C19.0801 15.1699 21.1401 13.1599 21.1401 10.6699C21.1401 8.17992 19.0801 6.16992 16.5301 6.16992Z" fill="#FFC344"/>
<path d="M16.5299 13.9299C18.3746 13.9299 19.8699 12.4704 19.8699 10.6699C19.8699 8.86946 18.3746 7.40991 16.5299 7.40991C14.6853 7.40991 13.1899 8.86946 13.1899 10.6699C13.1899 12.4704 14.6853 13.9299 16.5299 13.9299Z" fill="#FF992B"/>
<path d="M26.4801 11.8H8.87006C8.14006 11.8 7.56006 11.23 7.56006 10.52V24.98C7.56006 25.69 8.15006 26.26 8.87006 26.26H26.4701C27.2001 26.26 27.7801 25.69 27.7801 24.98V13.09C27.7801 12.38 27.1901 11.81 26.4701 11.81L26.4801 11.8Z" fill="#6BD9E7"/>
<path d="M26.9201 11.7998H25.5901C26.3201 11.7998 26.9001 12.3698 26.9001 13.0798V24.9698C26.9001 25.6798 26.3101 26.2498 25.5901 26.2498H26.9201C27.6501 26.2498 28.2301 25.6798 28.2301 24.9698V13.0798C28.2301 12.3698 27.6401 11.7998 26.9201 11.7998Z" fill="#02C7DD"/>
<path d="M19.4601 20.1599C20.0842 20.1599 20.5901 19.663 20.5901 19.0499C20.5901 18.4369 20.0842 17.9399 19.4601 17.9399C18.836 17.9399 18.3301 18.4369 18.3301 19.0499C18.3301 19.663 18.836 20.1599 19.4601 20.1599Z" fill="#FFE177"/>
<path d="M17.15 16.0398C17.7741 16.0398 18.28 15.5429 18.28 14.9298C18.28 14.3168 17.7741 13.8198 17.15 13.8198C16.5259 13.8198 16.02 14.3168 16.02 14.9298C16.02 15.5429 16.5259 16.0398 17.15 16.0398Z" fill="#FFE177"/>
<path d="M17.15 24.24C17.7741 24.24 18.28 23.7431 18.28 23.13C18.28 22.517 17.7741 22.02 17.15 22.02C16.5259 22.02 16.02 22.517 16.02 23.13C16.02 23.7431 16.5259 24.24 17.15 24.24Z" fill="#FFE177"/>
<path d="M24.9102 20.9599H28.4602C28.8302 20.9599 29.1202 20.6699 29.1202 20.3099V17.7499C29.1202 17.3899 28.8202 17.0999 28.4602 17.0999H24.9102C23.8202 17.0999 22.9302 17.9599 22.9302 19.0299C22.9302 20.0999 23.8102 20.9599 24.9102 20.9599Z" fill="#5845A0"/>
<path d="M28.9001 17.0999H27.5701C27.9401 17.0999 28.2301 17.3899 28.2301 17.7499V20.3099C28.2301 20.6699 27.9301 20.9599 27.5701 20.9599H28.9001C29.2701 20.9599 29.5601 20.6699 29.5601 20.3099V17.7499C29.5601 17.3899 29.2601 17.0999 28.9001 17.0999Z" fill="#493887"/>
<path d="M25.5899 19.03C25.5899 19.42 25.3099 19.7 24.9099 19.7C24.8099 19.7 24.7199 19.72 24.6399 19.7C24.3699 19.59 24.1899 19.34 24.1899 19.04C24.1899 18.74 24.3799 18.49 24.6399 18.38C24.7199 18.35 24.8199 18.38 24.9099 18.38C25.3099 18.38 25.5899 18.65 25.5899 19.05V19.03Z" fill="#FFE177"/>
<path d="M24.9101 18.3198C24.8101 18.3198 24.7201 18.3398 24.6401 18.3698C24.9101 18.4798 25.0901 18.7298 25.0901 19.0298C25.0901 19.3298 24.9001 19.5798 24.6401 19.6898C24.7301 19.7198 24.8201 19.7398 24.9101 19.7398C25.3101 19.7398 25.6401 19.4198 25.6401 19.0298C25.6401 18.6398 25.3101 18.3198 24.9101 18.3198Z" fill="#FFC344"/>
<path d="M13.3702 11.7399C13.2502 11.3899 13.1802 11.0299 13.1802 10.6699C13.1802 8.86991 14.6802 7.40991 16.5202 7.40991C18.3602 7.40991 19.8602 8.86991 19.8602 10.6699C19.8602 11.0399 19.8002 11.3999 19.6702 11.7399" stroke="black" stroke-width="0.5" stroke-linecap="round" stroke-linejoin="round"/>
<path d="M17.28 11.7699C17.5 11.3799 17.41 10.8499 16.86 10.6599C16.46 10.5199 16.16 10.3999 15.96 10.2399C15.61 9.97992 15.74 9.29992 16.25 9.14992C16.8 8.98992 17.16 9.30992 17.16 9.30992L17.21 9.34992M16.51 8.67992V9.04992M19.91 7.60992C20.67 8.40992 21.14 9.48992 21.14 10.6699C21.14 11.0399 21.09 11.3999 21.01 11.7399M12.04 11.7299C11.95 11.3799 11.91 11.0299 11.91 10.6699C11.91 8.17992 13.97 6.16992 16.52 6.16992C17.32 6.16992 18.06 6.36992 18.72 6.70992M9.78999 18.9299L12.59 14.9299H15.91M7.73999 19.0099H18.28" stroke="black" stroke-width="0.5" stroke-linecap="round" stroke-linejoin="round"/>
<path d="M19.4601 20.1199C20.0842 20.1199 20.5901 19.6229 20.5901 19.0099C20.5901 18.3969 20.0842 17.8999 19.4601 17.8999C18.836 17.8999 18.3301 18.3969 18.3301 19.0099C18.3301 19.6229 18.836 20.1199 19.4601 20.1199Z" stroke="black" stroke-width="0.5" stroke-linecap="round" stroke-linejoin="round"/>
<path d="M17.15 16.0398C17.7741 16.0398 18.28 15.5429 18.28 14.9298C18.28 14.3168 17.7741 13.8198 17.15 13.8198C16.5259 13.8198 16.02 14.3168 16.02 14.9298C16.02 15.5429 16.5259 16.0398 17.15 16.0398Z" stroke="black" stroke-width="0.5" stroke-linecap="round" stroke-linejoin="round"/>
<path d="M17.15 24.24C17.7741 24.24 18.28 23.7431 18.28 23.13C18.28 22.517 17.7741 22.02 17.15 22.02C16.5259 22.02 16.02 22.517 16.02 23.13C16.02 23.7431 16.5259 24.24 17.15 24.24Z" stroke="black" stroke-width="0.5" stroke-linecap="round" stroke-linejoin="round"/>
<path d="M24.9102 19.7398C25.3133 19.7398 25.6402 19.4219 25.6402 19.0298C25.6402 18.6377 25.3133 18.3198 24.9102 18.3198C24.507 18.3198 24.1802 18.6377 24.1802 19.0298C24.1802 19.4219 24.507 19.7398 24.9102 19.7398Z" stroke="black" stroke-width="0.5" stroke-linecap="round" stroke-linejoin="round"/>
<path d="M21.0201 9.23999H24.0501C24.7801 9.23999 25.3601 9.80999 25.3601 10.52V11.8H8.87006C8.14006 11.8 7.56006 11.23 7.56006 10.52C7.56006 9.80999 8.15006 9.23999 8.87006 9.23999H12.0501M28.2301 16.94V13.08C28.2301 12.37 27.6401 11.8 26.9201 11.8H25.4101" stroke="black" stroke-width="0.5" stroke-linecap="round" stroke-linejoin="round"/>
<path d="M7.56006 10.5598V24.9698C7.56006 25.6798 8.15006 26.2498 8.87006 26.2498H26.9201C27.6501 26.2498 28.2301 25.6798 28.2301 24.9698V21.0898M14.8801 23.1298H15.8201" stroke="black" stroke-width="0.5" stroke-linecap="round" stroke-linejoin="round"/>
<path d="M9.73999 19.0499L12.59 23.1299H13.43M24.91 17.0999C23.82 17.0999 22.93 17.9599 22.93 19.0299C22.93 20.0999 23.81 20.9599 24.91 20.9599H28.9C29.27 20.9599 29.56 20.6699 29.56 20.3099V17.7499C29.56 17.3899 29.26 17.0999 28.9 17.0999H26.4" stroke="black" stroke-width="0.5" stroke-linecap="round" stroke-linejoin="round"/>
<defs>
<linearGradient id="paint0_linear_1005_543" x1="17.5" y1="0" x2="17.5" y2="35" gradientUnits="userSpaceOnUse">
<stop stop-color="#87CFF2"/>
<stop offset="0.5" stop-color="#077BB4"/>
<stop offset="1" stop-color="#077BB4"/>
</linearGradient>
</defs>
</svg>
