<svg width="45" height="45" viewBox="0 0 45 45" fill="none" xmlns="http://www.w3.org/2000/svg">
<g clip-path="url(#clip0_818_817)">
<path d="M0.565686 22.4614C0.578544 34.56 10.44 44.4085 22.5257 44.3828C34.6114 44.3571 44.4214 34.5471 44.4343 22.4614C44.4343 10.3628 34.5985 0.514255 22.5 0.527112C10.4014 0.514255 0.552829 10.3757 0.565686 22.4614Z" fill="white"/>
<path d="M0.565686 22.4614C0.552829 10.3757 10.4014 0.514282 22.5 0.514282C34.5985 0.514282 44.4471 10.3629 44.4343 22.4486C44.4343 34.5343 34.6243 44.3443 22.5257 44.37C10.44 44.3957 0.578544 34.56 0.565686 22.4486V22.4614ZM19.1828 15.6343V2.27571C15.1714 2.95714 11.6871 4.64142 8.72997 7.35428C5.32283 10.4786 3.2014 14.3357 2.36569 18.8743C2.42997 18.9129 2.45569 18.9386 2.4814 18.9386C4.34569 18.9386 6.22283 18.9514 8.08712 18.9386C8.18997 18.9386 8.34426 18.7714 8.39569 18.6429C8.6914 17.9229 8.88426 17.1386 9.26997 16.47C10.0543 15.0943 11.1857 14.1943 12.8443 14.0914C14.2971 14.0014 15.6728 14.3229 17.01 14.7986C17.73 15.0557 18.4371 15.3643 19.1828 15.66V15.6343ZM15.8143 31.3586C14.9271 31.77 14.0785 32.1686 13.2428 32.5543C12.4585 32.9143 11.9828 32.6057 11.9957 31.7314C12.0214 30.1371 12.3943 28.6457 13.2171 27.27C13.2685 27.18 13.3071 27.0643 13.3585 26.9486C12.0343 26.8071 11.9828 26.7943 10.7614 26.0743C10.62 25.9971 10.44 25.9586 10.2857 25.9586C7.76569 25.9586 5.24569 25.9586 2.72569 25.9586C2.60997 25.9586 2.49426 25.9843 2.37854 25.9971C3.9214 35.3314 11.88 41.67 19.17 42.57V30.0986C18.6685 31.0757 18.36 32.1043 18.2571 33.1843C18.2185 33.5957 18.0771 33.93 17.64 33.9943C17.19 34.0714 16.92 33.8014 16.7528 33.4157C16.4571 32.7343 16.1357 32.0657 15.8143 31.3586ZM26.2285 15.66C26.4343 15.57 26.5885 15.5057 26.7428 15.4414C28.3628 14.7471 30.0085 14.1429 31.8085 14.0657C33.5443 13.9886 34.8943 14.6314 35.8843 16.0714C36.4114 16.83 36.7843 17.6529 36.9643 18.5657C37.0285 18.8743 37.1443 18.9643 37.4528 18.9643C39.06 18.9514 40.6671 18.9643 42.2743 18.9643C42.39 18.9643 42.5057 18.9386 42.6214 18.9257C41.2328 10.3114 34.02 3.61285 26.2285 2.40428V15.6729V15.66ZM31.9371 26.9229C32.0271 27.1029 32.0785 27.2057 32.1428 27.3086C32.94 28.6586 33.2871 30.1371 33.3385 31.68C33.3643 32.5671 32.85 32.8886 32.04 32.5157C31.2043 32.13 30.3685 31.7314 29.5071 31.3329C29.16 32.0914 28.8257 32.8114 28.4914 33.5443C28.3371 33.8786 28.08 34.0457 27.72 33.9943C27.36 33.9429 27.1543 33.6986 27.09 33.3386C27.0643 33.2357 27.0771 33.12 27.0643 33.0171C26.9485 32.0657 26.6914 31.14 26.2543 30.1629V42.5314C34.74 41.13 41.4643 33.8657 42.6214 25.9843C42.5443 25.9843 42.4671 25.9586 42.4028 25.9586C39.96 25.9586 37.5171 25.9586 35.0743 25.9586C34.9457 25.9586 34.7914 25.9843 34.6885 26.0614C33.9043 26.64 33.03 26.9486 31.9628 26.9229H31.9371ZM19.9157 17.7686C18.4243 16.8171 16.0071 15.8914 14.31 15.6086C12.2657 15.2743 10.9157 15.9943 10.1957 17.9357C9.9514 18.6043 9.80997 19.3371 9.7714 20.0571C9.6814 21.5486 10.0414 22.9371 10.9543 24.1586C11.5971 25.02 12.4328 25.5471 13.5385 25.4314C14.4514 25.3414 15.3771 25.1871 16.2514 24.9429C17.5885 24.57 18.8228 23.9271 20.0057 23.1943C19.9028 22.8986 19.7871 22.6414 19.7228 22.3714C19.6457 22.0757 19.4914 21.9729 19.1957 21.9986C18.5143 22.05 17.8328 22.0629 17.1643 22.1271C16.6114 22.1786 16.2514 21.9986 16.1743 21.5486C16.0971 21.0857 16.38 20.7386 16.9585 20.6743C17.7557 20.5843 18.5528 20.5457 19.3885 20.4686C19.3885 20.2886 19.4143 20.0957 19.4271 19.8643C19.2471 19.8257 19.08 19.7743 18.9128 19.7486C18.1157 19.6457 17.3185 19.5557 16.5214 19.4529C15.9685 19.3886 15.6728 19.1057 15.6985 18.6429C15.7243 18.1929 16.0585 17.9229 16.6243 17.9743C17.4857 18.0514 18.3471 18.1157 19.1957 18.2957C19.7228 18.3986 19.8643 18.2186 19.9157 17.7557V17.7686ZM26.0485 20.4943C26.8843 20.5586 27.6814 20.5971 28.4528 20.7C28.71 20.7386 29.0185 20.9314 29.1471 21.1371C29.25 21.3043 29.2114 21.7029 29.07 21.8443C28.9028 22.0243 28.5685 22.14 28.3114 22.14C27.5914 22.14 26.8585 22.05 26.1385 22.0371C26.01 22.0371 25.8043 22.14 25.7528 22.2557C25.6114 22.5514 25.5214 22.8857 25.4185 23.22C27.1671 24.2486 28.9671 25.11 30.96 25.3929C32.0143 25.5471 33.0557 25.5343 33.9171 24.7243C35.8585 22.9114 36.2443 19.2729 34.74 17.0229C34.02 15.9429 33.0557 15.4414 31.7571 15.5443C29.4685 15.7371 27.4628 16.6886 25.4828 17.7171C25.56 18.2314 25.74 18.3986 26.28 18.2957C27.1414 18.1157 28.0157 18.0514 28.9028 17.9743C29.34 17.9357 29.6228 18.2057 29.6743 18.6043C29.7257 19.0029 29.4685 19.3371 29.0314 19.4271C28.89 19.4529 28.7485 19.4529 28.62 19.4657C27.7585 19.5814 26.8843 19.6971 26.0357 19.8V20.4686L26.0485 20.4943ZM24.7243 42.84V42.1586C24.7243 37.6071 24.6985 33.0429 24.75 28.4914C24.75 27.5271 24.57 26.7171 23.9657 25.9714C23.5157 25.4057 23.13 24.8014 22.6671 24.1586C22.0757 25.0071 21.5228 25.7657 21.0214 26.5757C20.8414 26.8714 20.7257 27.2571 20.7257 27.6043C20.7128 32.49 20.7128 37.3629 20.7128 42.2486C20.7128 42.3514 20.6743 42.48 20.7128 42.57C20.7643 42.6857 20.8928 42.84 20.9828 42.84C22.2171 42.8529 23.4514 42.84 24.7243 42.84ZM24.7243 2.03143C23.5543 2.03143 22.4357 2.04428 21.3171 2.03143C20.8543 2.03143 20.6871 2.14714 20.7 2.64857C20.7257 7.08428 20.7 11.52 20.7 15.9557C20.7 16.56 20.8414 16.7271 21.4585 16.7271C22.2943 16.7271 23.13 16.7271 23.9657 16.7271C24.57 16.7271 24.7243 16.5471 24.7243 15.9557C24.7243 11.52 24.7243 7.08428 24.7243 2.64857V2.03143ZM2.17283 20.4429C2.14712 20.5971 2.10854 20.7257 2.10854 20.8543C2.10854 21.9086 2.10854 22.95 2.10854 24.0043C2.10854 24.3643 2.26283 24.4671 2.60997 24.4671C4.7314 24.4543 6.83997 24.4671 8.9614 24.4671C9.07712 24.4671 9.17997 24.4414 9.34712 24.4286C8.61426 23.1686 8.3314 21.8443 8.2414 20.4557H2.17283V20.4429ZM36.0514 24.4671C38.2757 24.4671 40.3843 24.4671 42.5057 24.4671C42.84 24.4671 42.8914 24.3 42.8914 24.0429C42.8914 22.9757 42.8914 21.9086 42.8914 20.8543C42.8914 20.5071 42.75 20.4171 42.4157 20.43C41.1814 20.4429 39.9471 20.43 38.7128 20.43C38.2114 20.43 37.6971 20.43 37.1571 20.43C37.0928 21.8571 36.7714 23.1814 36.0514 24.4671ZM20.3271 24.7886C18.8871 25.5471 17.4214 26.2029 15.8657 26.6271C15.6985 26.6786 15.5443 26.8071 15.4028 26.9229C14.4771 27.7586 13.9628 28.8386 13.68 30.0343C13.6285 30.2529 13.6157 30.4714 13.5643 30.7671C14.3357 30.4071 15.0171 30.0857 15.6985 29.7771C16.2771 29.5071 16.6371 29.6486 16.9071 30.2143C16.9971 30.4071 17.0871 30.6 17.2157 30.8829C17.9743 28.6329 19.0671 26.6914 20.3143 24.8014L20.3271 24.7886ZM25.0328 24.7629C26.2543 26.6786 27.3214 28.6457 28.08 30.8443C28.1571 30.6771 28.2085 30.5871 28.2471 30.51C28.7228 29.4943 28.9028 29.43 29.9057 29.8929C30.4971 30.1629 31.0885 30.4457 31.7443 30.7414C31.5128 29.2757 31.0371 28.0286 30.0214 27.0386C29.7771 26.8071 29.4428 26.6529 29.1214 26.5243C28.44 26.2414 27.72 26.0229 27.0514 25.74C26.37 25.4443 25.7014 25.0971 25.0328 24.7629ZM22.7057 22.7186C23.04 22.7186 23.3871 22.7314 23.7214 22.7186C23.8371 22.7186 24.0171 22.6029 24.0557 22.5C24.5828 21.2143 24.7371 19.9157 24.1843 18.5914C24.0814 18.3343 23.94 18.2057 23.6443 18.2186C23.0143 18.2443 22.3714 18.2443 21.7414 18.2186C21.4328 18.2186 21.3043 18.3343 21.2014 18.6043C20.8285 19.6329 20.7514 20.6743 21.0343 21.7414C21.3043 22.7443 21.3043 22.7314 22.32 22.7314C22.4485 22.7314 22.5643 22.7314 22.6928 22.7314L22.7057 22.7186Z" fill="#201600"/>
<path d="M19.1829 15.6343C18.4372 15.3386 17.73 15.03 17.01 14.7729C15.66 14.2971 14.2843 13.9757 12.8443 14.0657C11.1857 14.1686 10.0414 15.0814 9.27001 16.4443C8.88429 17.1129 8.69144 17.8971 8.39572 18.6171C8.34429 18.7457 8.19001 18.9129 8.08715 18.9129C6.22287 18.9257 4.34572 18.9129 2.48144 18.9129C2.45572 18.9129 2.43001 18.8871 2.36572 18.8486C3.21429 14.31 5.32287 10.4529 8.73001 7.32857C11.7 4.61571 15.1714 2.93143 19.1829 2.25V15.6214V15.6343Z" fill="#3EB5F1"/>
<path d="M15.8144 31.3586C16.1487 32.0658 16.4572 32.7343 16.7529 33.4158C16.9329 33.8143 17.2029 34.0715 17.6401 33.9943C18.0772 33.93 18.2058 33.5958 18.2572 33.1843C18.3601 32.1043 18.6815 31.0758 19.1701 30.0986V42.57C11.8672 41.67 3.92152 35.3315 2.37866 25.9972C2.49438 25.9843 2.61009 25.9586 2.7258 25.9586C5.2458 25.9586 7.7658 25.9586 10.2858 25.9586C10.4529 25.9586 10.6329 25.9843 10.7615 26.0743C11.9829 26.7943 12.0215 26.82 13.3587 26.9486C13.3072 27.0643 13.2687 27.1672 13.2172 27.27C12.3944 28.6458 12.0215 30.1372 11.9958 31.7315C11.9958 32.6058 12.4587 32.9143 13.2429 32.5543C14.0915 32.1686 14.9272 31.77 15.8144 31.3586Z" fill="#3EB5F1"/>
<path d="M26.2285 15.66V2.37854C34.0071 3.58711 41.2328 10.2857 42.6214 18.9C42.5057 18.9 42.3899 18.9385 42.2742 18.9385C40.6671 18.9385 39.0599 18.9385 37.4528 18.9385C37.1442 18.9385 37.0285 18.8485 36.9642 18.54C36.7842 17.64 36.4114 16.8171 35.8842 16.0457C34.8942 14.6185 33.5314 13.9757 31.8085 14.04C30.0085 14.1171 28.3628 14.7214 26.7428 15.4157C26.5885 15.48 26.4342 15.5443 26.2285 15.6343V15.66Z" fill="#3EB5F1"/>
<path d="M31.9371 26.9229C33.0042 26.9486 33.8785 26.64 34.6628 26.0615C34.7657 25.9843 34.9199 25.9586 35.0485 25.9586C37.4914 25.9586 39.9342 25.9586 42.3771 25.9586C42.4542 25.9586 42.5314 25.9715 42.5957 25.9843C41.4385 33.8658 34.7142 41.1172 26.2285 42.5315V30.1629C26.6785 31.14 26.9228 32.0658 27.0385 33.0172C27.0514 33.12 27.0385 33.2358 27.0642 33.3386C27.1285 33.6986 27.3342 33.93 27.6942 33.9943C28.0671 34.0458 28.3114 33.8786 28.4657 33.5443C28.7999 32.8115 29.1342 32.0915 29.4814 31.3329C30.3428 31.7315 31.1785 32.13 32.0142 32.5158C32.8242 32.8886 33.3385 32.5672 33.3128 31.68C33.2614 30.1243 32.9142 28.6586 32.1171 27.3086C32.0528 27.2058 32.0014 27.1029 31.9114 26.9229H31.9371Z" fill="#3EB5F1"/>
<path d="M19.9157 17.7685C19.8643 18.2314 19.71 18.4114 19.1957 18.3085C18.3472 18.1285 17.4857 18.0642 16.6243 17.9871C16.0586 17.9357 15.7243 18.2057 15.6986 18.6557C15.6729 19.1185 15.9557 19.4014 16.5215 19.4657C17.3186 19.5557 18.1157 19.6585 18.9129 19.7614C19.08 19.7871 19.2343 19.8385 19.4272 19.8771C19.4143 20.1085 19.4015 20.3014 19.3886 20.4814C18.5529 20.5457 17.7557 20.5971 16.9586 20.6871C16.38 20.7514 16.0972 21.0985 16.1743 21.5614C16.2515 22.0114 16.6115 22.2042 17.1643 22.1399C17.8457 22.0757 18.5143 22.0628 19.1957 22.0114C19.4915 21.9857 19.6457 22.0885 19.7229 22.3842C19.7872 22.6542 19.9029 22.9114 20.0057 23.2071C18.8229 23.9399 17.5886 24.5828 16.2515 24.9557C15.3643 25.1999 14.4515 25.3542 13.5386 25.4442C12.4457 25.5599 11.5972 25.0199 10.9543 24.1714C10.0415 22.9628 9.68146 21.5614 9.77146 20.0699C9.81003 19.3628 9.95146 18.6171 10.1957 17.9485C10.9286 16.0071 12.2657 15.2742 14.31 15.6214C16.0072 15.9042 18.4243 16.8299 19.9157 17.7814V17.7685Z" fill="#D7569C"/>
<path d="M26.0485 20.4943V19.8257C26.91 19.71 27.7714 19.5943 28.6328 19.4915C28.7743 19.4786 28.9157 19.4915 29.0443 19.4529C29.4814 19.3629 29.7385 19.0286 29.6871 18.63C29.6357 18.2315 29.34 17.9615 28.9157 18C28.0414 18.0772 27.1543 18.1415 26.2928 18.3215C25.7528 18.4372 25.56 18.2572 25.4957 17.7429C27.4757 16.7143 29.4814 15.7629 31.77 15.57C33.0685 15.4672 34.0328 15.9686 34.7528 17.0486C36.2443 19.2986 35.8585 22.9372 33.93 24.75C33.0685 25.56 32.0143 25.5729 30.9728 25.4186C28.9671 25.1229 27.18 24.2743 25.4314 23.2457C25.5471 22.9115 25.6243 22.5772 25.7657 22.2815C25.8171 22.1657 26.0228 22.0629 26.1514 22.0629C26.8714 22.0886 27.6043 22.1657 28.3243 22.1657C28.5814 22.1657 28.9157 22.05 29.0828 21.87C29.2243 21.7286 29.2628 21.33 29.16 21.1629C29.0314 20.9443 28.7228 20.7643 28.4657 20.7257C27.6814 20.61 26.8971 20.5843 26.0614 20.52L26.0485 20.4943Z" fill="#D7569C"/>
<path d="M24.7244 42.84C23.4515 42.84 22.2172 42.84 20.9829 42.84C20.8929 42.84 20.7772 42.6729 20.7129 42.57C20.6744 42.48 20.7129 42.3643 20.7129 42.2486C20.7129 37.3629 20.7129 32.49 20.7258 27.6043C20.7258 27.2571 20.8415 26.8714 21.0215 26.5757C21.5229 25.7786 22.0758 25.02 22.6672 24.1586C23.1301 24.8014 23.5287 25.4057 23.9658 25.9714C24.5572 26.7171 24.7501 27.5271 24.7501 28.4914C24.7115 33.0429 24.7244 37.6071 24.7244 42.1586V42.84Z" fill="#D7569C"/>
<path d="M24.7242 2.03137V2.64852C24.7242 7.08423 24.7242 11.5199 24.7242 15.9557C24.7242 16.5342 24.5571 16.7142 23.9657 16.7271C23.13 16.7271 22.2942 16.7271 21.4585 16.7271C20.8542 16.7271 20.7 16.5599 20.7 15.9557C20.7 11.5199 20.7 7.08423 20.7 2.64852C20.7 2.14709 20.8671 2.01852 21.3171 2.03137C22.4357 2.05709 23.5671 2.03137 24.7242 2.03137Z" fill="#D7569C"/>
<path d="M2.17285 20.4429H8.22856C8.31856 21.8315 8.60142 23.1558 9.33427 24.4158C9.17999 24.4286 9.06427 24.4543 8.94856 24.4543C6.82713 24.4543 4.71856 24.4543 2.59713 24.4543C2.24999 24.4543 2.0957 24.3643 2.0957 23.9915C2.0957 22.9372 2.0957 21.8958 2.0957 20.8415C2.0957 20.7129 2.13427 20.5715 2.15999 20.4301L2.17285 20.4429Z" fill="#D7569C"/>
<path d="M36.0515 24.4672C36.7715 23.1815 37.0929 21.8572 37.1572 20.4301C37.6972 20.4301 38.1987 20.4301 38.7129 20.4301C39.9472 20.4301 41.1815 20.4301 42.4158 20.4301C42.7501 20.4301 42.9044 20.5072 42.8915 20.8543C42.8915 21.9215 42.8915 22.9886 42.8915 24.0429C42.8915 24.3001 42.8401 24.4672 42.5058 24.4672C40.3972 24.4543 38.2758 24.4672 36.0515 24.4672Z" fill="#D7569C"/>
<path d="M20.3271 24.7886C19.08 26.6786 17.9871 28.62 17.2286 30.87C17.1 30.5872 17.01 30.3943 16.92 30.2015C16.65 29.6358 16.3029 29.5072 15.7114 29.7643C15.03 30.0729 14.3486 30.3943 13.5771 30.7543C13.6286 30.4586 13.6414 30.24 13.6929 30.0215C13.9757 28.8258 14.49 27.7458 15.4157 26.91C15.5443 26.7943 15.7114 26.6529 15.8786 26.6143C17.4343 26.19 18.9 25.5343 20.34 24.7758L20.3271 24.7886Z" fill="#D7569C"/>
<path d="M25.0327 24.7628C25.7013 25.0842 26.3699 25.4442 27.0513 25.74C27.7327 26.0357 28.4399 26.2414 29.1213 26.5242C29.4427 26.6528 29.777 26.8071 30.0213 27.0385C31.037 28.0157 31.5127 29.2757 31.7441 30.7414C31.0884 30.4328 30.497 30.1628 29.9056 29.8928C28.9027 29.43 28.7227 29.4942 28.247 30.51C28.2084 30.5871 28.1699 30.6771 28.0799 30.8442C27.3213 28.6457 26.2541 26.6785 25.0327 24.7628Z" fill="#D7569C"/>
<path d="M22.7057 22.7186C22.5772 22.7186 22.4615 22.7186 22.3329 22.7186C21.3172 22.7186 21.3043 22.7186 21.0472 21.7286C20.7643 20.6615 20.8543 19.62 21.2143 18.5915C21.3043 18.3343 21.4457 18.1929 21.7543 18.2058C22.3843 18.2315 23.0272 18.2315 23.6572 18.2058C23.9657 18.2058 24.0943 18.3215 24.1972 18.5786C24.7372 19.9029 24.5957 21.2015 24.0686 22.4872C24.03 22.59 23.85 22.6929 23.7343 22.7058C23.4 22.7315 23.0529 22.7058 22.7186 22.7058L22.7057 22.7186Z" fill="#D7569C"/>
<path d="M41.143 0.604248C41.0401 0.604248 40.963 0.655677 40.9244 0.758534C40.6287 1.34996 40.3459 1.94139 40.0501 2.54568C40.0244 2.59711 39.9987 2.62282 39.9344 2.62282C39.5359 2.67425 39.1373 2.73853 38.7259 2.78996C38.4559 2.82853 38.1987 2.86711 37.9287 2.90568C37.7873 2.93139 37.7101 3.04711 37.7359 3.17568C37.7359 3.22711 37.7873 3.29139 37.8259 3.32996C38.3016 3.79282 38.7773 4.25568 39.253 4.71853C39.2916 4.75711 39.3044 4.78282 39.2916 4.83425C39.1759 5.48996 39.073 6.13282 38.9573 6.78853C38.9573 6.82711 38.9444 6.86568 38.9573 6.90425C38.9701 7.07139 39.1501 7.17425 39.343 7.08425C39.9216 6.77568 40.513 6.46711 41.0916 6.15853C41.143 6.13282 41.1816 6.13282 41.233 6.15853C41.8244 6.46711 42.4159 6.77568 42.9944 7.09711C43.0844 7.14853 43.1744 7.14853 43.2644 7.09711C43.3544 7.03282 43.3801 6.94282 43.3544 6.83996C43.2387 6.17139 43.123 5.51568 43.0201 4.84711C43.0201 4.79568 43.0201 4.76996 43.0587 4.73139C43.5344 4.26853 44.0101 3.80568 44.4859 3.34282C44.5244 3.30425 44.563 3.23996 44.5759 3.17568C44.6016 3.02139 44.4987 2.91853 44.3187 2.89282C43.663 2.80282 43.0201 2.69996 42.3644 2.60996C42.313 2.60996 42.2873 2.58425 42.2744 2.54568C41.9787 1.95425 41.683 1.34996 41.4001 0.758534C41.3487 0.655677 41.2716 0.604248 41.1559 0.604248H41.143Z" fill="url(#paint0_linear_818_817)"/>
<path d="M41.1429 0.604248C41.2586 0.604248 41.3358 0.655677 41.3872 0.758534C41.6829 1.34996 41.9786 1.95425 42.2615 2.54568C42.2872 2.58425 42.3001 2.60996 42.3515 2.60996C43.0072 2.69996 43.6501 2.80282 44.3058 2.89282C44.4858 2.91853 44.5886 3.02139 44.5629 3.17568C44.5629 3.23996 44.5115 3.30425 44.4729 3.34282C43.9972 3.80568 43.5215 4.26853 43.0458 4.73139C43.0072 4.76996 42.9943 4.79568 43.0072 4.84711C43.1229 5.50282 43.2386 6.17139 43.3415 6.83996C43.3543 6.94282 43.3415 7.03282 43.2515 7.09711C43.1615 7.16139 43.0715 7.16139 42.9815 7.09711C42.3901 6.78853 41.7986 6.47996 41.2201 6.15853C41.1686 6.13282 41.1301 6.13282 41.0786 6.15853C40.5001 6.46711 39.9086 6.77568 39.3301 7.08425C39.1501 7.18711 38.9701 7.08425 38.9443 6.90425C38.9443 6.86568 38.9443 6.82711 38.9443 6.78853C39.0601 6.13282 39.1629 5.48996 39.2786 4.83425C39.2786 4.78282 39.2786 4.75711 39.2401 4.71853C38.7643 4.25568 38.2886 3.79282 37.8129 3.32996C37.7743 3.29139 37.7358 3.22711 37.7229 3.17568C37.6972 3.04711 37.7743 2.93139 37.9158 2.90568C38.1858 2.86711 38.4429 2.82853 38.7129 2.78996C39.1115 2.72568 39.5101 2.67425 39.9215 2.62282C39.9729 2.62282 40.0115 2.59711 40.0372 2.54568C40.3329 1.95425 40.6158 1.36282 40.9115 0.758534C40.9629 0.655677 41.0272 0.604248 41.1301 0.604248H41.1429Z" fill="url(#paint1_linear_818_817)"/>
</g>
<defs>
<linearGradient id="paint0_linear_818_817" x1="38.7644" y1="6.80139" x2="43.5473" y2="2.01854" gradientUnits="userSpaceOnUse">
<stop stop-color="#3EB5F1"/>
<stop offset="1" stop-color="#D7569C"/>
</linearGradient>
<linearGradient id="paint1_linear_818_817" x1="38.7643" y1="6.80139" x2="43.5472" y2="2.01853" gradientUnits="userSpaceOnUse">
<stop stop-color="#3EB5F1"/>
<stop offset="1" stop-color="#D7569C"/>
</linearGradient>
<clipPath id="clip0_818_817">
<rect width="45" height="45" fill="white"/>
</clipPath>
</defs>
</svg>
