<svg width="15" height="15" viewBox="0 0 15 15" fill="none" xmlns="http://www.w3.org/2000/svg">
<g clip-path="url(#clip0_1008_1582)">
<path d="M0 13.0064C0 9.33546 0 5.66933 0 1.9984C0.00857143 1.95527 0.0214286 1.91693 0.03 1.8738C0.192857 0.809904 1.02857 0 1.98857 0C5.17714 0 8.36572 0 11.55 0C12.5271 0 13.3843 0.867412 13.5043 1.95048C13.5171 2.05591 13.5557 2.09425 13.6371 2.1278C14.2414 2.3722 14.6571 2.83706 14.88 3.50799C14.9314 3.66613 14.9614 3.82907 15 3.99201V13.0016C14.9914 13.0304 14.9786 13.0639 14.9743 13.0927C14.8114 14.1949 13.98 15 12.9857 15C9.33 15 5.67429 15 2.01857 15C1.14429 15 0.377143 14.3722 0.102857 13.4425C0.06 13.3035 0.0342857 13.155 0 13.0064ZM14.0571 6.11502C14.0571 5.5016 14.0571 4.91693 14.0571 4.33227C14.0571 3.57029 13.5986 3.05751 12.9171 3.05751C9.30857 3.05751 5.7 3.05751 2.09143 3.05751C1.40143 3.05751 0.947143 3.57029 0.947143 4.34185C0.947143 7.11661 0.947143 9.89137 0.947143 12.6613C0.947143 13.4329 1.40571 13.9457 2.09571 13.9457C5.7 13.9457 9.3 13.9457 12.9043 13.9457C13.5943 13.9457 14.0571 13.4329 14.0571 12.6661C14.0571 12.1534 14.0571 11.6406 14.0571 11.1278C14.0571 11.0751 14.0571 11.0224 14.0486 10.9601C13.9671 10.9601 13.9071 10.9601 13.8429 10.9601C12.8314 10.9553 11.82 10.9888 10.8129 10.9313C9.61286 10.8642 8.69143 9.50319 8.89286 8.17572C9.08143 6.9345 9.95571 6.11022 11.0829 6.11022C12.0086 6.11022 12.9386 6.11022 13.8643 6.11022C13.92 6.11022 13.98 6.11022 14.0571 6.11022V6.11502ZM12.5529 1.9984C12.5357 1.9361 12.5271 1.88818 12.5143 1.84505C12.36 1.37061 11.9614 1.05911 11.4857 1.05431C10.9929 1.05431 10.5 1.05431 10.0071 1.05431C7.38 1.05431 4.75714 1.05431 2.13 1.05431C1.88143 1.05431 1.64571 1.10224 1.43143 1.25559C1.11 1.49042 0.895714 1.97444 0.968571 2.34345C1.44857 1.97923 1.99286 1.9984 2.53714 1.9984C5.80714 1.9984 9.07714 1.9984 12.3471 1.9984H12.5529ZM14.0443 9.90096V7.18371C14.0186 7.18371 14.0057 7.17412 13.9886 7.17412C12.9814 7.17412 11.9786 7.16454 10.9714 7.17412C10.3543 7.18371 9.83571 7.77796 9.81429 8.46805C9.78857 9.25879 10.3286 9.89137 11.0486 9.89617C12 9.89617 12.9514 9.89617 13.9029 9.89617C13.9457 9.89617 13.9886 9.89617 14.04 9.89617L14.0443 9.90096Z" fill="white"/>
<path d="M11.2115 8.02734C11.4815 8.02734 11.7043 8.27175 11.7043 8.57846C11.7043 8.88038 11.4815 9.12958 11.2115 9.12958C10.9415 9.12958 10.7229 8.88038 10.7229 8.57846C10.7229 8.27175 10.9415 8.02734 11.2158 8.02734H11.2115Z" fill="white"/>
</g>
<defs>
<clipPath id="clip0_1008_1582">
<rect width="15" height="15" fill="white"/>
</clipPath>
</defs>
</svg>
