<svg width="35" height="35" viewBox="0 0 35 35" fill="none" xmlns="http://www.w3.org/2000/svg">
<g clip-path="url(#clip0_807_27)">
<path d="M17.5 35C27.165 35 35 27.165 35 17.5C35 7.83502 27.165 0 17.5 0C7.83502 0 0 7.83502 0 17.5C0 27.165 7.83502 35 17.5 35Z" fill="url(#paint0_linear_807_27)"/>
<path d="M17.5 32.5C25.7843 32.5 32.5 25.7843 32.5 17.5C32.5 9.21573 25.7843 2.5 17.5 2.5C9.21573 2.5 2.5 9.21573 2.5 17.5C2.5 25.7843 9.21573 32.5 17.5 32.5Z" fill="#0088CC"/>
<path d="M7.5 24.06C7.5 19.68 7.5 15.31 7.5 10.93C7.51 10.88 7.53 10.83 7.54 10.78C7.76 9.51005 8.87 8.55005 10.15 8.55005C14.4 8.55005 18.65 8.55005 22.9 8.55005C24.2 8.55005 25.35 9.58005 25.51 10.88C25.53 11.01 25.58 11.05 25.69 11.09C26.5 11.38 27.05 11.93 27.35 12.74C27.42 12.93 27.46 13.12 27.51 13.32V24.06C27.51 24.06 27.48 24.13 27.47 24.17C27.25 25.48 26.14 26.44 24.82 26.44C19.95 26.44 15.07 26.44 10.2 26.44C9.04 26.44 8.01 25.69 7.65 24.58C7.59 24.41 7.56 24.23 7.51 24.05L7.5 24.06ZM26.24 15.85C26.24 15.12 26.24 14.42 26.24 13.73C26.24 12.82 25.63 12.21 24.72 12.21C19.91 12.21 15.1 12.21 10.29 12.21C9.37 12.21 8.76 12.82 8.76 13.74C8.76 17.05 8.76 20.35 8.76 23.66C8.76 24.58 9.37 25.19 10.29 25.19C15.09 25.19 19.9 25.19 24.7 25.19C25.62 25.19 26.23 24.58 26.24 23.66C26.24 23.05 26.24 22.44 26.24 21.82C26.24 21.76 26.24 21.7 26.24 21.62C26.13 21.62 26.05 21.62 25.97 21.62C24.62 21.62 23.27 21.65 21.93 21.59C20.33 21.51 19.1 19.89 19.37 18.31C19.62 16.83 20.79 15.85 22.29 15.85C23.53 15.85 24.76 15.85 26 15.85C26.08 15.85 26.15 15.85 26.26 15.85H26.24ZM24.24 10.94C24.22 10.86 24.21 10.81 24.19 10.76C23.99 10.19 23.45 9.82005 22.82 9.82005C22.16 9.82005 21.51 9.82005 20.85 9.82005C17.35 9.82005 13.85 9.82005 10.35 9.82005C10.02 9.82005 9.7 9.88005 9.42 10.06C8.99 10.34 8.71 10.92 8.8 11.36C9.44 10.93 10.17 10.95 10.89 10.95C15.25 10.95 19.61 10.95 23.97 10.95H24.24V10.94ZM26.23 20.36V17.12C26.23 17.12 26.18 17.11 26.16 17.11C24.82 17.11 23.48 17.11 22.14 17.11C21.32 17.11 20.63 17.83 20.59 18.65C20.55 19.59 21.28 20.35 22.24 20.35C23.51 20.35 24.78 20.35 26.05 20.35C26.11 20.35 26.17 20.35 26.24 20.35L26.23 20.36Z" fill="#3EB5F1"/>
<path d="M22.45 18.12C22.81 18.12 23.1 18.41 23.1 18.78C23.1 19.14 22.8 19.44 22.44 19.44C22.08 19.44 21.79 19.14 21.79 18.78C21.79 18.42 22.08 18.12 22.44 18.12H22.45Z" fill="#3EB5F1"/>
</g>
<defs>
<linearGradient id="paint0_linear_807_27" x1="17.5" y1="35" x2="17.5" y2="0" gradientUnits="userSpaceOnUse">
<stop stop-color="#3EB5F1"/>
<stop offset="0.51" stop-color="#3EB5F1"/>
<stop offset="1" stop-color="#3EB5F1"/>
</linearGradient>
<clipPath id="clip0_807_27">
<rect width="35" height="35" fill="white"/>
</clipPath>
</defs>
</svg>
