<svg width="150" height="150" viewBox="0 0 150 150" fill="none" xmlns="http://www.w3.org/2000/svg">
<g clip-path="url(#clip0_958_347)">
<path d="M130 0H20C8.9543 0 0 8.9543 0 20V130C0 141.046 8.9543 150 20 150H130C141.046 150 150 141.046 150 130V20C150 8.9543 141.046 0 130 0Z" fill="url(#paint0_linear_958_347)"/>
<path d="M110.24 51.45L26.36 53.71C22.57 53.71 19.5 43.94 19.5 40.24C19.5 36.54 22.57 33.54 26.36 33.54H103.37C107.16 33.54 110.23 36.54 110.23 40.24V51.46L110.24 51.45Z" fill="#5845A0"/>
<path d="M105.69 33.53H98.75C102.54 33.53 105.61 36.53 105.61 40.23V51.45L112.55 46.93V40.23C112.55 36.53 109.48 33.53 105.69 33.53Z" fill="#493887"/>
<path d="M88.17 41.02C88.17 54.01 79.69 64.32 66.38 64.32C65.25 64.32 64.15 64.47 63.06 64.32C51.32 62.74 42.27 52.91 42.27 41.02C42.27 29.13 51.32 19.29 63.06 17.72C64.14 17.57 65.25 17.72 66.38 17.72C79.69 17.72 88.17 28.03 88.17 41.02Z" fill="#FFE177"/>
<path d="M66.38 17.5C65.25 17.5 64.15 17.58 63.06 17.72C74.8 19.3 83.85 29.13 83.85 41.02C83.85 52.91 74.8 62.74 63.06 64.32C64.14 64.47 65.25 64.54 66.38 64.54C79.69 64.54 90.49 54.01 90.49 41.02C90.49 28.03 79.7 17.5 66.38 17.5Z" fill="#FFC344"/>
<path d="M66.38 58.08C76.0284 58.08 83.85 50.4465 83.85 41.03C83.85 31.6136 76.0284 23.98 66.38 23.98C56.7316 23.98 48.91 31.6136 48.91 41.03C48.91 50.4465 56.7316 58.08 66.38 58.08Z" fill="#FF992B"/>
<path d="M118.38 46.93H26.37C22.58 46.93 19.51 43.93 19.51 40.23V115.8C19.51 119.5 22.58 122.5 26.37 122.5H118.38C122.17 122.5 125.24 119.5 125.24 115.8V53.63C125.24 49.93 122.17 46.93 118.37 46.93H118.38Z" fill="#6BD9E7"/>
<path d="M120.69 46.93H113.75C117.54 46.93 120.61 49.93 120.61 53.63V115.8C120.61 119.5 117.54 122.5 113.75 122.5H120.69C124.48 122.5 127.55 119.5 127.55 115.8V53.63C127.55 49.93 124.48 46.93 120.69 46.93Z" fill="#02C7DD"/>
<path d="M81.69 90.61C84.9595 90.61 87.61 88.0222 87.61 84.83C87.61 81.6378 84.9595 79.05 81.69 79.05C78.4205 79.05 75.77 81.6378 75.77 84.83C75.77 88.0222 78.4205 90.61 81.69 90.61Z" fill="#FFE177"/>
<path d="M70.87 69.05C74.1395 69.05 76.79 66.4622 76.79 63.27C76.79 60.0778 74.1395 57.49 70.87 57.49C67.6005 57.49 64.95 60.0778 64.95 63.27C64.95 66.4622 67.6005 69.05 70.87 69.05Z" fill="#FFE177"/>
<path d="M65.44 102.07C67.75 99.81 71.5 99.81 73.82 102.07C76.14 104.33 76.13 107.99 73.82 110.25C71.51 112.51 67.76 112.51 65.44 110.25C63.12 107.99 63.13 104.33 65.44 102.07Z" fill="#FFE177"/>
<path d="M110.18 94.8H128.71C130.63 94.8 132.18 93.28 132.18 91.41V78.02C132.18 76.15 130.63 74.63 128.71 74.63H110.18C104.47 74.63 99.85 79.14 99.85 84.71C99.85 90.28 104.48 94.79 110.18 94.79V94.8Z" fill="#5845A0"/>
<path d="M131.03 74.63H124.09C126.01 74.63 127.56 76.15 127.56 78.02V91.41C127.56 93.28 126.01 94.8 124.09 94.8H131.03C132.95 94.8 134.5 93.28 134.5 91.41V78.02C134.5 76.15 132.95 74.63 131.03 74.63Z" fill="#493887"/>
<path d="M113.75 84.72C113.75 86.77 112.28 88.2 110.18 88.2C109.67 88.2 109.19 88.33 108.74 88.15C107.35 87.6 106.38 86.27 106.38 84.72C106.38 83.17 107.36 81.84 108.74 81.29C109.18 81.11 109.67 81.24 110.18 81.24C112.28 81.24 113.75 82.67 113.75 84.72Z" fill="#FFE177"/>
<path d="M110.18 81.01C109.67 81.01 109.19 81.11 108.74 81.29C110.13 81.84 111.1 83.17 111.1 84.72C111.1 86.27 110.12 87.6 108.74 88.15C109.2 88.33 109.68 88.43 110.18 88.43C112.28 88.43 113.98 86.77 113.98 84.72C113.98 82.67 112.28 81.01 110.18 81.01Z" fill="#FFC344"/>
<path d="M49.87 46.64C49.23 44.83 48.9 42.93 48.9 41.02C48.9 31.6 56.72 23.97 66.37 23.97C76.02 23.97 83.84 31.6 83.84 41.02C83.84 42.93 83.51 44.83 82.87 46.64" stroke="black" stroke-width="4" stroke-linecap="round" stroke-linejoin="round"/>
<path d="M70.29 46.75C71.44 44.71 70.97 41.92 68.1 40.93C66 40.2 64.43 39.55 63.4 38.76C61.59 37.38 62.25 33.83 64.91 33.04C67.81 32.19 69.69 33.88 69.69 33.88L69.95 34.07M66.27 30.61V32.54M84.07 25.05C88.05 29.25 90.48 34.86 90.48 41.03C90.48 42.97 90.24 44.85 89.79 46.65M42.94 46.55C42.49 44.74 42.27 42.88 42.27 41.02C42.27 28.03 53.06 17.5 66.38 17.5C70.54 17.5 74.45 18.53 77.86 20.33M31.18 84.19L45.81 63.27H63.15M20.43 84.6H75.54" stroke="black" stroke-width="4" stroke-linecap="round" stroke-linejoin="round"/>
<path d="M81.69 90.38C84.9595 90.38 87.61 87.7922 87.61 84.6C87.61 81.4078 84.9595 78.82 81.69 78.82C78.4205 78.82 75.77 81.4078 75.77 84.6C75.77 87.7922 78.4205 90.38 81.69 90.38Z" stroke="black" stroke-width="4" stroke-linecap="round" stroke-linejoin="round"/>
<path d="M69.63 69.05C72.8995 69.05 75.55 66.4622 75.55 63.27C75.55 60.0778 72.8995 57.49 69.63 57.49C66.3605 57.49 63.71 60.0778 63.71 63.27C63.71 66.4622 66.3605 69.05 69.63 69.05Z" stroke="black" stroke-width="4" stroke-linecap="round" stroke-linejoin="round"/>
<path d="M65.44 102.07C67.75 99.81 71.5 99.81 73.82 102.07C76.14 104.33 76.13 107.99 73.82 110.25C71.51 112.51 67.76 112.51 65.44 110.25C63.12 107.99 63.13 104.33 65.44 102.07Z" stroke="black" stroke-width="4" stroke-linecap="round" stroke-linejoin="round"/>
<path d="M110.18 88.42C112.279 88.42 113.98 86.759 113.98 84.71C113.98 82.661 112.279 81 110.18 81C108.081 81 106.38 82.661 106.38 84.71C106.38 86.759 108.081 88.42 110.18 88.42Z" stroke="black" stroke-width="4" stroke-linecap="round" stroke-linejoin="round"/>
<path d="M89.86 33.53H105.69C109.48 33.53 112.55 36.53 112.55 40.23V46.93H26.36C22.57 46.93 19.5 43.93 19.5 40.23C19.5 36.53 22.57 33.53 26.36 33.53H42.97M127.56 73.81V53.63C127.56 49.93 124.49 46.93 120.7 46.93H112.8" stroke="black" stroke-width="4" stroke-linecap="round" stroke-linejoin="round"/>
<path d="M19.5 40.46V115.8C19.5 119.5 22.57 122.5 26.36 122.5H120.69C124.48 122.5 127.55 119.5 127.55 115.8V95.52M57.78 106.16H62.69" stroke="black" stroke-width="4" stroke-linecap="round" stroke-linejoin="round"/>
<path d="M30.89 84.83L45.81 106.16H50.21M110.18 74.63C104.47 74.63 99.85 79.14 99.85 84.71C99.85 90.28 104.48 94.79 110.18 94.79H131.03C132.95 94.79 134.5 93.27 134.5 91.4V78.01C134.5 76.14 132.95 74.62 131.03 74.62H117.98" stroke="black" stroke-width="4" stroke-linecap="round" stroke-linejoin="round"/>
</g>
<defs>
<linearGradient id="paint0_linear_958_347" x1="75" y1="0" x2="75" y2="150" gradientUnits="userSpaceOnUse">
<stop stop-color="#87CFF2"/>
<stop offset="0.5" stop-color="#077BB4"/>
<stop offset="1" stop-color="#077BB4"/>
</linearGradient>
<clipPath id="clip0_958_347">
<rect width="150" height="150" fill="white"/>
</clipPath>
</defs>
</svg>
