<svg width="35" height="35" viewBox="0 0 35 35" fill="none" xmlns="http://www.w3.org/2000/svg">
<path d="M11.6799 10.24C11.6799 10.24 11.6799 10.21 11.6799 10.2C11.1699 10.2 10.6499 10.2 10.1399 10.2C9.3199 10.22 8.4899 10.17 7.6899 10.3C3.7599 10.93 1.1999 14.21 1.4999 18.18C1.7299 21.37 4.3099 24.24 7.4799 24.66C8.88989 24.85 10.3399 24.76 11.7799 24.79C11.8399 24.79 11.8899 24.77 11.9499 24.76C12.6199 24.63 13.1099 24.07 13.1299 23.4C13.1599 22.72 12.7299 22.12 12.0699 21.94C11.8899 21.89 11.6899 21.88 11.4999 21.88C10.3599 21.86 9.2099 21.93 8.0899 21.8C5.8399 21.54 4.22989 19.46 4.38989 17.18C4.5399 14.95 6.42989 13.15 8.65989 13.13C10.6799 13.11 12.6899 13.11 14.7099 13.13C16.7299 13.15 18.5199 14.67 18.8799 16.66C18.9399 17.02 18.9399 17.39 18.9999 17.74C19.1299 18.51 19.7799 19 20.5699 18.94C21.2899 18.88 21.8699 18.27 21.8799 17.52C21.8799 17.21 21.8499 16.91 21.8199 16.6C21.4699 13.28 18.5899 10.46 15.2699 10.25C14.0799 10.18 12.8799 10.24 11.6799 10.24ZM23.3299 24.75C23.3299 24.75 23.3299 24.78 23.3299 24.79C24.0399 24.79 24.7399 24.81 25.4499 24.79C26.2099 24.76 26.9899 24.78 27.7299 24.62C31.4099 23.85 33.7899 20.62 33.5099 16.84C33.2599 13.39 30.3599 10.47 26.9099 10.24C25.7499 10.16 24.5899 10.19 23.4299 10.19C22.5199 10.19 21.8799 10.82 21.8799 11.66C21.8799 12.5 22.5399 13.1 23.4499 13.11C24.4099 13.11 25.3599 13.11 26.3199 13.11C28.6999 13.14 30.6199 15.09 30.6299 17.48C30.6299 19.86 28.7099 21.84 26.3399 21.86C24.3299 21.88 22.3299 21.88 20.3199 21.86C18.2799 21.84 16.4999 20.32 16.1299 18.31C16.0599 17.95 16.0699 17.58 15.9999 17.23C15.8499 16.46 15.1699 15.97 14.4099 16.05C13.7099 16.12 13.1199 16.77 13.1299 17.51C13.1299 17.97 13.1799 18.44 13.2699 18.9C13.8299 22.02 16.6099 24.54 19.7799 24.74C20.9599 24.81 22.1499 24.75 23.3299 24.75Z" fill="white"/>
<path d="M11.6799 10.24C12.8799 10.24 14.0799 10.18 15.2699 10.25C18.5899 10.46 21.4699 13.28 21.8199 16.6C21.8499 16.91 21.8799 17.21 21.8799 17.52C21.8799 18.27 21.2899 18.88 20.5699 18.94C19.7799 19 19.1199 18.51 18.9999 17.74C18.9399 17.38 18.9399 17.01 18.8799 16.66C18.5199 14.67 16.7399 13.15 14.7099 13.13C12.6899 13.11 10.6799 13.11 8.65987 13.13C6.42987 13.15 4.53987 14.95 4.38987 17.18C4.22987 19.46 5.83987 21.54 8.08987 21.8C9.20987 21.93 10.3599 21.86 11.4999 21.88C11.6899 21.88 11.8899 21.89 12.0699 21.94C12.7299 22.12 13.1499 22.72 13.1299 23.4C13.0999 24.07 12.6099 24.63 11.9499 24.76C11.8899 24.77 11.8399 24.79 11.7799 24.79C10.3499 24.75 8.89987 24.84 7.47987 24.66C4.30987 24.24 1.72987 21.37 1.49987 18.18C1.20987 14.21 3.76987 10.93 7.68987 10.3C8.48987 10.17 9.32987 10.22 10.1399 10.2C10.6499 10.19 11.1699 10.2 11.6799 10.2C11.6799 10.21 11.6799 10.23 11.6799 10.24Z" fill="white"/>
<path d="M23.33 24.75C22.15 24.75 20.96 24.81 19.78 24.74C16.62 24.54 13.83 22.02 13.27 18.9C13.19 18.44 13.14 17.97 13.13 17.51C13.12 16.78 13.71 16.12 14.41 16.05C15.18 15.97 15.85 16.46 16 17.23C16.07 17.59 16.06 17.96 16.13 18.31C16.5 20.32 18.28 21.84 20.32 21.86C22.33 21.88 24.33 21.88 26.34 21.86C28.71 21.84 30.64 19.86 30.63 17.48C30.63 15.1 28.7 13.14 26.32 13.11C25.36 13.1 24.41 13.11 23.45 13.11C22.54 13.11 21.88 12.5 21.88 11.66C21.88 10.82 22.52 10.19 23.43 10.19C24.59 10.19 25.76 10.16 26.91 10.24C30.36 10.47 33.26 13.39 33.51 16.84C33.79 20.62 31.41 23.85 27.73 24.62C26.99 24.77 26.21 24.76 25.45 24.79C24.74 24.82 24.04 24.79 23.33 24.79C23.33 24.78 23.33 24.76 23.33 24.75Z" fill="white"/>
</svg>
