<svg width="35" height="35" viewBox="0 0 35 35" fill="none" xmlns="http://www.w3.org/2000/svg">
<path d="M0 28.98C0 21.32 0 13.67 0 6.00997C0.02 5.91997 0.05 5.83997 0.07 5.74997C0.45 3.52997 2.4 1.83997 4.64 1.83997C12.08 1.83997 19.52 1.83997 26.95 1.83997C29.23 1.83997 31.23 3.64997 31.51 5.90997C31.54 6.12997 31.63 6.20997 31.82 6.27997C33.23 6.78997 34.2 7.75997 34.72 9.15997C34.84 9.48997 34.91 9.82997 35 10.17V28.97C34.98 29.03 34.95 29.1 34.94 29.16C34.56 31.46 32.62 33.14 30.3 33.14C21.77 33.14 13.24 33.14 4.71 33.14C2.67 33.14 0.88 31.83 0.24 29.89C0.14 29.6 0.08 29.29 0 28.98ZM32.8 14.6C32.8 13.32 32.8 12.1 32.8 10.88C32.8 9.28997 31.73 8.21997 30.14 8.21997C21.72 8.21997 13.3 8.21997 4.88 8.21997C3.27 8.21997 2.21 9.28997 2.21 10.9C2.21 16.69 2.21 22.48 2.21 28.26C2.21 29.87 3.28 30.94 4.89 30.94C13.3 30.94 21.7 30.94 30.11 30.94C31.72 30.94 32.8 29.87 32.8 28.27C32.8 27.2 32.8 26.13 32.8 25.06C32.8 24.95 32.8 24.84 32.78 24.71C32.59 24.71 32.45 24.71 32.3 24.71C29.94 24.7 27.58 24.77 25.23 24.65C22.43 24.51 20.28 21.67 20.75 18.9C21.19 16.31 23.23 14.59 25.86 14.59C28.02 14.59 30.19 14.59 32.35 14.59C32.48 14.59 32.62 14.59 32.8 14.59V14.6ZM29.29 6.00997C29.25 5.87997 29.23 5.77997 29.2 5.68997C28.84 4.69997 27.91 4.04997 26.8 4.03997C25.65 4.03997 24.5 4.03997 23.35 4.03997C17.22 4.03997 11.1 4.03997 4.97 4.03997C4.39 4.03997 3.84 4.13997 3.34 4.45997C2.59 4.94997 2.09 5.95997 2.26 6.72997C3.38 5.96997 4.65 6.00997 5.92 6.00997C13.55 6.00997 21.18 6.00997 28.81 6.00997H29.29ZM32.77 22.5V16.83C32.71 16.83 32.68 16.81 32.64 16.81C30.29 16.81 27.95 16.79 25.6 16.81C24.16 16.83 22.95 18.07 22.9 19.51C22.84 21.16 24.1 22.48 25.78 22.49C28 22.49 30.22 22.49 32.44 22.49C32.54 22.49 32.64 22.49 32.76 22.49L32.77 22.5Z" fill="white"/>
<path d="M26.16 18.59C26.79 18.59 27.31 19.1 27.31 19.74C27.31 20.37 26.79 20.89 26.16 20.89C25.53 20.89 25.02 20.37 25.02 19.74C25.02 19.1 25.53 18.59 26.17 18.59H26.16Z" fill="white"/>
</svg>
