<svg width="35" height="35" viewBox="0 0 35 35" fill="none" xmlns="http://www.w3.org/2000/svg">
<g clip-path="url(#clip0_1005_603)">
<path d="M17.5 35C27.165 35 35 27.165 35 17.5C35 7.83502 27.165 0 17.5 0C7.83502 0 0 7.83502 0 17.5C0 27.165 7.83502 35 17.5 35Z" fill="#039BE5"/>
<path d="M6.5 24.7199C6.5 19.9099 6.5 15.0899 6.5 10.2799C6.51 10.2299 6.53 10.1699 6.54 10.1199C6.78 8.72991 8.01 7.65991 9.41 7.65991C14.09 7.65991 18.76 7.65991 23.44 7.65991C24.87 7.65991 26.13 8.79991 26.31 10.2199C26.33 10.3599 26.38 10.4099 26.51 10.4499C27.4 10.7699 28.01 11.3799 28.33 12.2599C28.41 12.4699 28.45 12.6799 28.5 12.8999V24.7199C28.5 24.7199 28.47 24.7999 28.46 24.8399C28.22 26.2899 27 27.3399 25.54 27.3399C20.18 27.3399 14.82 27.3399 9.46 27.3399C8.18 27.3399 7.05 26.5099 6.65 25.2999C6.59 25.1099 6.55 24.9099 6.5 24.7199ZM27.12 15.6799C27.12 14.8799 27.12 14.1099 27.12 13.3399C27.12 12.3399 26.45 11.6699 25.45 11.6699C20.16 11.6699 14.87 11.6699 9.57 11.6699C8.56 11.6699 7.89 12.3399 7.89 13.3599C7.89 16.9999 7.89 20.6399 7.89 24.2699C7.89 25.2799 8.57 25.9599 9.57 25.9599C14.85 25.9599 20.14 25.9599 25.42 25.9599C26.43 25.9599 27.11 25.2899 27.11 24.2799C27.11 23.6099 27.11 22.9299 27.11 22.2599C27.11 22.1899 27.11 22.1199 27.11 22.0399C26.99 22.0399 26.9 22.0399 26.81 22.0399C25.33 22.0399 23.84 22.0799 22.36 21.9999C20.6 21.9099 19.25 20.1299 19.54 18.3899C19.82 16.7599 21.1 15.6799 22.75 15.6799C24.11 15.6799 25.47 15.6799 26.83 15.6799C26.91 15.6799 27 15.6799 27.11 15.6799H27.12ZM24.91 10.2799C24.89 10.1999 24.87 10.1399 24.85 10.0799C24.63 9.45991 24.04 9.04991 23.34 9.03991C22.62 9.03991 21.89 9.03991 21.17 9.03991C17.32 9.03991 13.47 9.03991 9.62 9.03991C9.25 9.03991 8.91 9.09991 8.6 9.30991C8.13 9.61991 7.81 10.2499 7.92 10.7399C8.63 10.2599 9.42 10.2899 10.22 10.2899C15.02 10.2899 19.81 10.2899 24.61 10.2899H24.91V10.2799ZM27.1 20.6499V17.0899C27.1 17.0899 27.04 17.0799 27.02 17.0799C25.55 17.0799 24.07 17.0699 22.6 17.0799C21.7 17.0799 20.93 17.8699 20.9 18.7799C20.86 19.8199 21.66 20.6499 22.71 20.6499C24.11 20.6499 25.5 20.6499 26.9 20.6499C26.96 20.6499 27.03 20.6499 27.1 20.6499Z" fill="white"/>
<path d="M22.94 18.1899C23.34 18.1899 23.66 18.5099 23.66 18.9099C23.66 19.3099 23.33 19.6299 22.94 19.6299C22.54 19.6299 22.22 19.2999 22.22 18.9099C22.22 18.5099 22.54 18.1899 22.94 18.1899Z" fill="white"/>
</g>
<defs>
<clipPath id="clip0_1005_603">
<rect width="35" height="35" fill="white"/>
</clipPath>
</defs>
</svg>
