<svg width="13" height="13" viewBox="0 0 13 13" fill="none" xmlns="http://www.w3.org/2000/svg">
<path d="M10.3983 3.55V3.88C10.3983 6 10.3983 8.11 10.3983 10.23C10.3983 10.38 10.3983 10.52 10.4283 10.67C10.4983 11.07 10.7883 11.35 11.1883 11.43C11.9383 11.57 12.4783 11.14 12.4783 10.38C12.4783 7.29 12.4783 4.19 12.4783 1.1C12.4783 0.4 12.0783 0 11.3783 0C8.3283 0 5.26831 0 2.21831 0C2.13831 0 2.0583 0 1.9783 0C1.4583 0.04 1.10831 0.39 1.04831 0.93C0.988305 1.43 1.2583 1.89 1.7183 2.02C1.8883 2.07 2.06831 2.08 2.24831 2.08C4.36831 2.08 6.48831 2.08 8.6083 2.08C8.69831 2.08 8.78831 2.08 8.87831 2.08C8.87831 2.1 8.8983 2.13 8.90831 2.15C8.83831 2.21 8.76831 2.26 8.70831 2.32C6.46831 4.56 4.2283 6.81 1.9883 9.05C1.4383 9.6 0.898305 10.14 0.348305 10.69C0.0783049 10.96 -0.061695 11.28 0.038305 11.66C0.138305 12.06 0.398305 12.33 0.798305 12.44C1.20831 12.56 1.53831 12.41 1.82831 12.12C4.6083 9.33 7.38831 6.55 10.1683 3.76C10.2283 3.7 10.2983 3.64 10.4083 3.53L10.3983 3.55Z" fill="url(#paint0_linear_823_956)"/>
<path d="M10.3983 3.55002C10.2883 3.66002 10.2183 3.71002 10.1583 3.78002C7.37834 6.57002 4.59834 9.35002 1.81834 12.14C1.52834 12.43 1.19834 12.58 0.788339 12.46C0.388339 12.35 0.12834 12.08 0.0283396 11.68C-0.0616604 11.3 0.0683395 10.98 0.33834 10.71C0.88834 10.16 1.42834 9.62002 1.97834 9.07002C4.21834 6.83002 6.45834 4.58002 8.69834 2.34002C8.75834 2.28002 8.83834 2.23002 8.89834 2.17002C8.89834 2.15002 8.87834 2.12002 8.86834 2.10002C8.77834 2.10002 8.68834 2.10002 8.59834 2.10002C6.47834 2.10002 4.35834 2.10002 2.23834 2.10002C2.05834 2.10002 1.87834 2.09002 1.70834 2.04002C1.24834 1.91002 0.978339 1.45002 1.03834 0.950019C1.09834 0.410019 1.43834 0.0600195 1.96834 0.0200195C2.04834 0.0200195 2.12834 0.0200195 2.20834 0.0200195C5.25834 0.0200195 8.31834 0.0200195 11.3683 0.0200195C12.0783 0.0200195 12.4683 0.410019 12.4683 1.12002C12.4683 4.21002 12.4683 7.31002 12.4683 10.4C12.4683 11.16 11.9283 11.6 11.1783 11.45C10.7783 11.37 10.4883 11.09 10.4183 10.69C10.3883 10.55 10.3883 10.4 10.3883 10.25C10.3883 8.13002 10.3883 6.02002 10.3883 3.90002V3.57002L10.3983 3.55002Z" fill="url(#paint1_linear_823_956)"/>
<defs>
<linearGradient id="paint0_linear_823_956" x1="0.308305" y1="12.19" x2="12.2083" y2="0.289999" gradientUnits="userSpaceOnUse">
<stop stop-color="#BBE8FC"/>
<stop offset="1" stop-color="#E38BA7"/>
</linearGradient>
<linearGradient id="paint1_linear_823_956" x1="0.30834" y1="12.19" x2="12.2083" y2="0.29002" gradientUnits="userSpaceOnUse">
<stop stop-color="#BBE8FC"/>
<stop offset="1" stop-color="#E38BA7"/>
</linearGradient>
</defs>
</svg>
